MetaBlum4.ufo
<glyph name="A" format="1">
  <advance width="560"/>
  <unicode hex="0041"/>
  <outline>
    <contour>
      <point x="166" y="1615" type="curve" smooth="yes"/>
      <point x="196" y="1618"/>
      <point x="229" y="1610"/>
      <point x="230" y="1601" type="curve" smooth="yes"/>
      <point x="231" y="1599"/>
      <point x="265" y="1238"/>
      <point x="306" y="799" type="curve" smooth="yes"/>
      <point x="371" y="97"/>
      <point x="380" y="-1"/>
      <point x="379" y="-3" type="curve" smooth="yes"/>
      <point x="377" y="-7"/>
      <point x="371" y="-10"/>
      <point x="361" y="-12" type="curve" smooth="yes"/>
      <point x="352" y="-14"/>
      <point x="349" y="-14"/>
      <point x="329" y="-14" type="curve" smooth="yes"/>
      <point x="309" y="-14"/>
      <point x="306" y="-14"/>
      <point x="299" y="-12" type="curve" smooth="yes"/>
      <point x="288" y="-9"/>
      <point x="282" y="-7"/>
      <point x="281" y="-4" type="curve"/>
      <point x="279" y="-2"/>
      <point x="272" y="71"/>
      <point x="248" y="332" type="curve" smooth="yes"/>
      <point x="231" y="515"/>
      <point x="217" y="667"/>
      <point x="216" y="668" type="curve"/>
      <point x="216" y="670" type="line"/>
      <point x="180" y="670" type="line"/>
      <point x="144" y="670" type="line"/>
      <point x="144" y="668" type="line"/>
      <point x="143" y="667"/>
      <point x="129" y="515"/>
      <point x="112" y="332" type="curve" smooth="yes"/>
      <point x="88" y="79"/>
      <point x="81" y="-2"/>
      <point x="79" y="-4" type="curve" smooth="yes"/>
      <point x="77" y="-7"/>
      <point x="72" y="-9"/>
      <point x="62" y="-12" type="curve" smooth="yes"/>
      <point x="54" y="-14"/>
      <point x="52" y="-14"/>
      <point x="31" y="-14" type="curve" smooth="yes"/>
      <point x="10" y="-14"/>
      <point x="7" y="-14"/>
      <point x="0" y="-12" type="curve" smooth="yes"/>
      <point x="-11" y="-9"/>
      <point x="-17" y="-7"/>
      <point x="-19" y="-4" type="curve" smooth="yes"/>
      <point x="-20" y="-1"/>
      <point x="-17" y="36"/>
      <point x="55" y="800" type="curve"/>
      <point x="117" y="1469"/>
      <point x="130" y="1601"/>
      <point x="131" y="1603" type="curve" smooth="yes"/>
      <point x="135" y="1609"/>
      <point x="149" y="1613"/>
    </contour>
    <contour>
      <point x="197" y="878" type="curve" smooth="yes"/>
      <point x="188" y="974"/>
      <point x="180" y="1053"/>
      <point x="180" y="1053" type="curve"/>
      <point x="180" y="1053"/>
      <point x="147" y="706"/>
      <point x="147" y="702" type="curve" smooth="yes"/>
      <point x="147" y="700"/>
      <point x="213" y="700"/>
      <point x="213" y="702" type="curve" smooth="yes"/>
      <point x="213" y="703"/>
      <point x="206" y="782"/>
    </contour>
  </outline>
</glyph>
<glyph name="B" format="1">
  <advance width="680"/>
  <unicode hex="0042"/>
  <outline>
    <contour>
      <point x="97" y="1615" type="curve" smooth="yes"/>
      <point x="99" y="1616"/>
      <point x="103" y="1616"/>
      <point x="104" y="1616" type="curve" smooth="yes"/>
      <point x="114" y="1617"/>
      <point x="141" y="1612"/>
      <point x="148" y="1608" type="curve" smooth="yes"/>
      <point x="160" y="1602"/>
      <point x="206" y="1561"/>
      <point x="230" y="1535" type="curve" smooth="yes"/>
      <point x="315" y="1440"/>
      <point x="366" y="1326"/>
      <point x="379" y="1196" type="curve" smooth="yes"/>
      <point x="381" y="1175"/>
      <point x="381" y="1115"/>
      <point x="379" y="1095" type="curve" smooth="yes"/>
      <point x="376" y="1059"/>
      <point x="371" y="1030"/>
      <point x="363" y="1000" type="curve" smooth="yes"/>
      <point x="333" y="884"/>
      <point x="271" y="782"/>
      <point x="181" y="704" type="curve"/>
      <point x="170" y="693"/>
      <point x="169" y="693"/>
      <point x="172" y="692" type="curve" smooth="yes"/>
      <point x="246" y="676"/>
      <point x="299" y="649"/>
      <point x="350" y="604" type="curve" smooth="yes"/>
      <point x="393" y="566"/>
      <point x="426" y="519"/>
      <point x="447" y="465" type="curve" smooth="yes"/>
      <point x="459" y="435"/>
      <point x="466" y="407"/>
      <point x="470" y="374" type="curve" smooth="yes"/>
      <point x="472" y="359"/>
      <point x="472" y="312"/>
      <point x="470" y="298" type="curve" smooth="yes"/>
      <point x="460" y="215"/>
      <point x="428" y="147"/>
      <point x="375" y="93" type="curve"/>
      <point x="346" y="65"/>
      <point x="320" y="46"/>
      <point x="287" y="29" type="curve" smooth="yes"/>
      <point x="238" y="4"/>
      <point x="187" y="-10"/>
      <point x="127" y="-14" type="curve" smooth="yes"/>
      <point x="94" y="-16"/>
      <point x="68" y="-13"/>
      <point x="58" y="-5" type="curve"/>
      <point x="55" y="-2" type="line"/>
      <point x="55" y="800" type="line"/>
      <point x="55" y="1602" type="line"/>
      <point x="58" y="1605" type="line" smooth="yes"/>
      <point x="62" y="1610"/>
      <point x="79" y="1614"/>
    </contour>
    <contour>
      <point x="166" y="1485" type="curve" smooth="yes"/>
      <point x="161" y="1491"/>
      <point x="157" y="1497"/>
      <point x="157" y="1497" type="curve" smooth="yes"/>
      <point x="156" y="1497"/>
      <point x="156" y="1338"/>
      <point x="156" y="1143" type="curve" smooth="yes"/>
      <point x="156" y="948"/>
      <point x="156" y="789"/>
      <point x="157" y="789" type="curve" smooth="yes"/>
      <point x="157" y="789"/>
      <point x="175" y="813"/>
      <point x="183" y="825" type="curve" smooth="yes"/>
      <point x="238" y="906"/>
      <point x="268" y="994"/>
      <point x="278" y="1097" type="curve" smooth="yes"/>
      <point x="280" y="1116"/>
      <point x="280" y="1174"/>
      <point x="278" y="1194" type="curve" smooth="yes"/>
      <point x="266" y="1304"/>
      <point x="230" y="1399"/>
    </contour>
    <contour>
      <point x="165" y="651" type="curve" smooth="yes"/>
      <point x="160" y="653"/>
      <point x="157" y="654"/>
      <point x="156" y="654" type="curve"/>
      <point x="156" y="341" type="line" smooth="yes"/>
      <point x="156" y="150"/>
      <point x="156" y="27"/>
      <point x="157" y="27" type="curve" smooth="yes"/>
      <point x="163" y="27"/>
      <point x="204" y="46"/>
      <point x="222" y="57" type="curve" smooth="yes"/>
      <point x="299" y="106"/>
      <point x="351" y="186"/>
      <point x="366" y="278" type="curve" smooth="yes"/>
      <point x="370" y="300"/>
      <point x="370" y="310"/>
      <point x="370" y="336" type="curve" smooth="yes"/>
      <point x="370" y="367"/>
      <point x="368" y="391"/>
      <point x="360" y="420" type="curve" smooth="yes"/>
      <point x="348" y="469"/>
      <point x="325" y="515"/>
      <point x="291" y="556" type="curve" smooth="yes"/>
      <point x="280" y="569"/>
      <point x="255" y="594"/>
      <point x="244" y="603" type="curve" smooth="yes"/>
      <point x="218" y="624"/>
      <point x="187" y="642"/>
    </contour>
  </outline>
</glyph>
<glyph name="C" format="1">
  <advance width="650"/>
  <unicode hex="0043"/>
  <outline>
    <contour>
      <point x="192" y="1825" type="curve" smooth="yes"/>
      <point x="208" y="1826"/>
      <point x="259" y="1825"/>
      <point x="276" y="1824" type="curve" smooth="yes"/>
      <point x="416" y="1808"/>
      <point x="524" y="1739"/>
      <point x="587" y="1624" type="curve" smooth="yes"/>
      <point x="610" y="1583"/>
      <point x="623" y="1541"/>
      <point x="630" y="1495" type="curve" smooth="yes"/>
      <point x="632" y="1476"/>
      <point x="632" y="1429"/>
      <point x="630" y="1411" type="curve" smooth="yes"/>
      <point x="621" y="1346"/>
      <point x="598" y="1290"/>
      <point x="561" y="1241" type="curve" smooth="yes"/>
      <point x="530" y="1199"/>
      <point x="488" y="1163"/>
      <point x="442" y="1139" type="curve" smooth="yes"/>
      <point x="429" y="1132"/>
      <point x="423" y="1130"/>
      <point x="410" y="1128" type="curve" smooth="yes"/>
      <point x="385" y="1125"/>
      <point x="352" y="1129"/>
      <point x="342" y="1137" type="curve" smooth="yes"/>
      <point x="336" y="1143"/>
      <point x="338" y="1146"/>
      <point x="357" y="1156" type="curve" smooth="yes"/>
      <point x="383" y="1171"/>
      <point x="414" y="1194"/>
      <point x="434" y="1214" type="curve" smooth="yes"/>
      <point x="481" y="1264"/>
      <point x="513" y="1324"/>
      <point x="525" y="1389" type="curve" smooth="yes"/>
      <point x="529" y="1413"/>
      <point x="530" y="1425"/>
      <point x="530" y="1453" type="curve" smooth="yes"/>
      <point x="530" y="1481"/>
      <point x="529" y="1493"/>
      <point x="524" y="1518" type="curve" smooth="yes"/>
      <point x="512" y="1579"/>
      <point x="482" y="1638"/>
      <point x="438" y="1688" type="curve" smooth="yes"/>
      <point x="384" y="1750"/>
      <point x="304" y="1792"/>
      <point x="233" y="1795" type="curve" smooth="yes"/>
      <point x="172" y="1797"/>
      <point x="97" y="1765"/>
      <point x="50" y="1715" type="curve" smooth="yes"/>
      <point x="-6" y="1657"/>
      <point x="-35" y="1578"/>
      <point x="-28" y="1505" type="curve" smooth="yes"/>
      <point x="-24" y="1460"/>
      <point x="-11" y="1418"/>
      <point x="16" y="1364" type="curve" smooth="yes"/>
      <point x="32" y="1331"/>
      <point x="42" y="1313"/>
      <point x="83" y="1245" type="curve" smooth="yes"/>
      <point x="122" y="1181"/>
      <point x="132" y="1162"/>
      <point x="148" y="1130" type="curve" smooth="yes"/>
      <point x="182" y="1060"/>
      <point x="205" y="988"/>
      <point x="216" y="913" type="curve" smooth="yes"/>
      <point x="223" y="872"/>
      <point x="224" y="847"/>
      <point x="224" y="800" type="curve" smooth="yes"/>
      <point x="224" y="753"/>
      <point x="223" y="728"/>
      <point x="216" y="687" type="curve" smooth="yes"/>
      <point x="205" y="612"/>
      <point x="182" y="540"/>
      <point x="148" y="471" type="curve" smooth="yes"/>
      <point x="132" y="438"/>
      <point x="122" y="419"/>
      <point x="83" y="355" type="curve" smooth="yes"/>
      <point x="42" y="287"/>
      <point x="32" y="269"/>
      <point x="16" y="237" type="curve" smooth="yes"/>
      <point x="-11" y="182"/>
      <point x="-24" y="140"/>
      <point x="-28" y="96" type="curve" smooth="yes"/>
      <point x="-33" y="38"/>
      <point x="-17" y="-23"/>
      <point x="18" y="-76" type="curve" smooth="yes"/>
      <point x="46" y="-117"/>
      <point x="80" y="-147"/>
      <point x="126" y="-170" type="curve" smooth="yes"/>
      <point x="162" y="-187"/>
      <point x="199" y="-196"/>
      <point x="233" y="-195" type="curve" smooth="yes"/>
      <point x="304" y="-192"/>
      <point x="384" y="-150"/>
      <point x="438" y="-88" type="curve" smooth="yes"/>
      <point x="482" y="-38"/>
      <point x="512" y="21"/>
      <point x="524" y="82" type="curve" smooth="yes"/>
      <point x="529" y="107"/>
      <point x="530" y="119"/>
      <point x="530" y="148" type="curve" smooth="yes"/>
      <point x="530" y="175"/>
      <point x="529" y="187"/>
      <point x="525" y="211" type="curve" smooth="yes"/>
      <point x="506" y="310"/>
      <point x="443" y="397"/>
      <point x="357" y="444" type="curve" smooth="yes"/>
      <point x="338" y="454"/>
      <point x="336" y="457"/>
      <point x="342" y="463" type="curve"/>
      <point x="355" y="473"/>
      <point x="402" y="476"/>
      <point x="427" y="468" type="curve" smooth="yes"/>
      <point x="433" y="466"/>
      <point x="449" y="458"/>
      <point x="462" y="450" type="curve" smooth="yes"/>
      <point x="524" y="411"/>
      <point x="573" y="355"/>
      <point x="601" y="291" type="curve" smooth="yes"/>
      <point x="616" y="257"/>
      <point x="624" y="227"/>
      <point x="630" y="190" type="curve"/>
      <point x="632" y="171"/>
      <point x="632" y="124"/>
      <point x="630" y="106" type="curve" smooth="yes"/>
      <point x="625" y="70"/>
      <point x="616" y="38"/>
      <point x="602" y="5" type="curve" smooth="yes"/>
      <point x="569" y="-68"/>
      <point x="515" y="-130"/>
      <point x="447" y="-170" type="curve" smooth="yes"/>
      <point x="407" y="-193"/>
      <point x="355" y="-212"/>
      <point x="306" y="-219" type="curve"/>
      <point x="249" y="-229"/>
      <point x="189" y="-228"/>
      <point x="135" y="-217" type="curve" smooth="yes"/>
      <point x="16" y="-195"/>
      <point x="-70" y="-127"/>
      <point x="-110" y="-27" type="curve" smooth="yes"/>
      <point x="-123" y="5"/>
      <point x="-129" y="32"/>
      <point x="-130" y="65" type="curve" smooth="yes"/>
      <point x="-132" y="120"/>
      <point x="-118" y="173"/>
      <point x="-83" y="244" type="curve" smooth="yes"/>
      <point x="-67" y="276"/>
      <point x="-57" y="294"/>
      <point x="-16" y="362" type="curve" smooth="yes"/>
      <point x="21" y="423"/>
      <point x="32" y="443"/>
      <point x="47" y="473" type="curve" smooth="yes"/>
      <point x="81" y="541"/>
      <point x="104" y="614"/>
      <point x="115" y="689" type="curve" smooth="yes"/>
      <point x="122" y="730"/>
      <point x="123" y="755"/>
      <point x="123" y="800" type="curve" smooth="yes"/>
      <point x="123" y="845"/>
      <point x="122" y="870"/>
      <point x="115" y="911" type="curve" smooth="yes"/>
      <point x="104" y="986"/>
      <point x="81" y="1059"/>
      <point x="47" y="1127" type="curve" smooth="yes"/>
      <point x="32" y="1157"/>
      <point x="21" y="1177"/>
      <point x="-16" y="1238" type="curve" smooth="yes"/>
      <point x="-57" y="1306"/>
      <point x="-67" y="1324"/>
      <point x="-83" y="1357" type="curve" smooth="yes"/>
      <point x="-118" y="1427"/>
      <point x="-132" y="1480"/>
      <point x="-130" y="1535" type="curve" smooth="yes"/>
      <point x="-129" y="1568"/>
      <point x="-123" y="1595"/>
      <point x="-110" y="1627" type="curve" smooth="yes"/>
      <point x="-87" y="1685"/>
      <point x="-49" y="1732"/>
      <point x="4" y="1766" type="curve" smooth="yes"/>
      <point x="54" y="1799"/>
      <point x="117" y="1819"/>
    </contour>
  </outline>
</glyph>
<glyph name="D" format="1">
  <advance width="695"/>
  <unicode hex="0044"/>
  <outline>
    <contour>
      <point x="97" y="1615" type="curve" smooth="yes"/>
      <point x="99" y="1616"/>
      <point x="103" y="1616"/>
      <point x="104" y="1616" type="curve" smooth="yes"/>
      <point x="110" y="1616"/>
      <point x="130" y="1614"/>
      <point x="137" y="1612" type="curve" smooth="yes"/>
      <point x="149" y="1609"/>
      <point x="152" y="1607"/>
      <point x="162" y="1595" type="curve" smooth="yes"/>
      <point x="231" y="1517"/>
      <point x="285" y="1435"/>
      <point x="332" y="1341" type="curve" smooth="yes"/>
      <point x="361" y="1283"/>
      <point x="381" y="1236"/>
      <point x="401" y="1175" type="curve" smooth="yes"/>
      <point x="465" y="979"/>
      <point x="478" y="769"/>
      <point x="438" y="566" type="curve"/>
      <point x="407" y="403"/>
      <point x="340" y="246"/>
      <point x="245" y="110" type="curve" smooth="yes"/>
      <point x="217" y="71"/>
      <point x="169" y="10"/>
      <point x="154" y="-4" type="curve" smooth="yes"/>
      <point x="145" y="-12"/>
      <point x="126" y="-16"/>
      <point x="101" y="-15" type="curve" smooth="yes"/>
      <point x="79" y="-14"/>
      <point x="65" y="-10"/>
      <point x="58" y="-5" type="curve"/>
      <point x="55" y="-2" type="line"/>
      <point x="55" y="800" type="line"/>
      <point x="55" y="1602" type="line"/>
      <point x="58" y="1605" type="line" smooth="yes"/>
      <point x="62" y="1610"/>
      <point x="79" y="1614"/>
    </contour>
    <contour>
      <point x="178" y="1433" type="curve" smooth="yes"/>
      <point x="172" y="1443"/>
      <point x="164" y="1455"/>
      <point x="161" y="1459" type="curve" smooth="yes"/>
      <point x="156" y="1467" type="line"/>
      <point x="156" y="800" type="line" smooth="yes"/>
      <point x="156" y="425"/>
      <point x="156" y="133"/>
      <point x="157" y="134" type="curve" smooth="yes"/>
      <point x="158" y="135"/>
      <point x="168" y="149"/>
      <point x="179" y="167" type="curve" smooth="yes"/>
      <point x="219" y="231"/>
      <point x="254" y="302"/>
      <point x="280" y="370" type="curve" smooth="yes"/>
      <point x="373" y="612"/>
      <point x="385" y="876"/>
      <point x="314" y="1127" type="curve" smooth="yes"/>
      <point x="306" y="1154"/>
      <point x="290" y="1204"/>
      <point x="280" y="1229" type="curve" smooth="yes"/>
      <point x="254" y="1296"/>
      <point x="216" y="1372"/>
    </contour>
  </outline>
</glyph>
<glyph name="E" format="1">
  <advance width="665"/>
  <unicode hex="0045"/>
  <outline>
    <contour>
      <point x="91" y="1615" type="curve" smooth="yes"/>
      <point x="92" y="1616"/>
      <point x="166" y="1616"/>
      <point x="255" y="1616" type="curve" smooth="yes"/>
      <point x="428" y="1616"/>
      <point x="426" y="1616"/>
      <point x="442" y="1611" type="curve" smooth="yes"/>
      <point x="449" y="1608"/>
      <point x="455" y="1604"/>
      <point x="455" y="1601" type="curve" smooth="yes"/>
      <point x="455" y="1597"/>
      <point x="449" y="1593"/>
      <point x="442" y="1590" type="curve" smooth="yes"/>
      <point x="427" y="1585"/>
      <point x="425" y="1585"/>
      <point x="286" y="1585" type="curve" smooth="yes"/>
      <point x="156" y="1585" type="line"/>
      <point x="156" y="1143" type="line"/>
      <point x="156" y="701" type="line"/>
      <point x="253" y="701" type="line"/>
      <point x="359" y="700"/>
      <point x="357" y="700"/>
      <point x="371" y="695" type="curve" smooth="yes"/>
      <point x="376" y="693"/>
      <point x="381" y="688"/>
      <point x="381" y="686" type="curve" smooth="yes"/>
      <point x="381" y="683"/>
      <point x="376" y="678"/>
      <point x="371" y="676" type="curve" smooth="yes"/>
      <point x="357" y="671"/>
      <point x="359" y="671"/>
      <point x="253" y="670" type="curve"/>
      <point x="156" y="670" type="line"/>
      <point x="156" y="343" type="line"/>
      <point x="156" y="16" type="line"/>
      <point x="286" y="16" type="line" smooth="yes"/>
      <point x="425" y="16"/>
      <point x="427" y="16"/>
      <point x="442" y="11" type="curve" smooth="yes"/>
      <point x="449" y="8"/>
      <point x="455" y="4"/>
      <point x="455" y="1" type="curve" smooth="yes"/>
      <point x="455" y="-5"/>
      <point x="443" y="-11"/>
      <point x="425" y="-13" type="curve" smooth="yes"/>
      <point x="416" y="-15"/>
      <point x="396" y="-15"/>
      <point x="250" y="-15" type="curve" smooth="yes"/>
      <point x="99" y="-14"/>
      <point x="85" y="-14"/>
      <point x="79" y="-13" type="curve" smooth="yes"/>
      <point x="67" y="-10"/>
      <point x="62" y="-8"/>
      <point x="58" y="-5" type="curve" smooth="yes"/>
      <point x="55" y="-2" type="line"/>
      <point x="55" y="800" type="line"/>
      <point x="55" y="1603" type="line"/>
      <point x="58" y="1606" type="line" smooth="yes"/>
      <point x="63" y="1610"/>
      <point x="75" y="1613"/>
    </contour>
  </outline>
</glyph>
<glyph name="G" format="1">
  <advance width="665"/>
  <unicode hex="0047"/>
  <outline>
    <contour>
      <point x="229" y="1615" type="curve" smooth="yes"/>
      <point x="245" y="1616"/>
      <point x="274" y="1616"/>
      <point x="291" y="1615" type="curve" smooth="yes"/>
      <point x="363" y="1610"/>
      <point x="422" y="1587"/>
      <point x="467" y="1548" type="curve" smooth="yes"/>
      <point x="515" y="1507"/>
      <point x="545" y="1451"/>
      <point x="556" y="1385" type="curve" smooth="yes"/>
      <point x="558" y="1369"/>
      <point x="558" y="1330"/>
      <point x="556" y="1314" type="curve" smooth="yes"/>
      <point x="552" y="1288"/>
      <point x="545" y="1266"/>
      <point x="533" y="1241" type="curve" smooth="yes"/>
      <point x="521" y="1216"/>
      <point x="507" y="1197"/>
      <point x="487" y="1177" type="curve" smooth="yes"/>
      <point x="467" y="1157"/>
      <point x="443" y="1138"/>
      <point x="431" y="1133" type="curve" smooth="yes"/>
      <point x="408" y="1124"/>
      <point x="360" y="1126"/>
      <point x="344" y="1136" type="curve" smooth="yes"/>
      <point x="341" y="1138"/>
      <point x="341" y="1139"/>
      <point x="341" y="1143" type="curve" smooth="yes"/>
      <point x="341" y="1146"/>
      <point x="341" y="1147"/>
      <point x="353" y="1155" type="curve" smooth="yes"/>
      <point x="369" y="1166"/>
      <point x="380" y="1176"/>
      <point x="391" y="1187" type="curve" smooth="yes"/>
      <point x="426" y="1223"/>
      <point x="447" y="1266"/>
      <point x="455" y="1316" type="curve" smooth="yes"/>
      <point x="457" y="1332"/>
      <point x="457" y="1367"/>
      <point x="455" y="1383" type="curve" smooth="yes"/>
      <point x="446" y="1437"/>
      <point x="424" y="1484"/>
      <point x="388" y="1522" type="curve" smooth="yes"/>
      <point x="355" y="1557"/>
      <point x="307" y="1582"/>
      <point x="267" y="1585" type="curve" smooth="yes"/>
      <point x="242" y="1586"/>
      <point x="205" y="1578"/>
      <point x="180" y="1567" type="curve" smooth="yes"/>
      <point x="136" y="1546"/>
      <point x="105" y="1510"/>
      <point x="88" y="1460" type="curve"/>
      <point x="77" y="1424"/>
      <point x="72" y="1391"/>
      <point x="73" y="1336" type="curve"/>
      <point x="73" y="1265"/>
      <point x="78" y="1217"/>
      <point x="107" y="1041" type="curve" smooth="yes"/>
      <point x="134" y="878"/>
      <point x="141" y="813"/>
      <point x="141" y="730" type="curve" smooth="yes"/>
      <point x="141" y="670"/>
      <point x="139" y="634"/>
      <point x="124" y="501" type="curve" smooth="yes"/>
      <point x="109" y="362"/>
      <point x="106" y="323"/>
      <point x="104" y="266" type="curve" smooth="yes"/>
      <point x="102" y="160"/>
      <point x="119" y="92"/>
      <point x="157" y="51" type="curve" smooth="yes"/>
      <point x="178" y="28"/>
      <point x="208" y="15"/>
      <point x="236" y="16" type="curve" smooth="yes"/>
      <point x="253" y="17"/>
      <point x="270" y="24"/>
      <point x="290" y="37" type="curve" smooth="yes"/>
      <point x="316" y="54"/>
      <point x="337" y="79"/>
      <point x="354" y="113" type="curve" smooth="yes"/>
      <point x="394" y="192"/>
      <point x="395" y="307"/>
      <point x="357" y="414" type="curve" smooth="yes"/>
      <point x="350" y="435"/>
      <point x="341" y="453"/>
      <point x="329" y="479" type="curve" smooth="yes"/>
      <point x="293" y="551"/>
      <point x="252" y="611"/>
      <point x="199" y="673" type="curve" smooth="yes"/>
      <point x="191" y="682"/>
      <point x="190" y="683"/>
      <point x="190" y="686" type="curve" smooth="yes"/>
      <point x="191" y="692"/>
      <point x="201" y="697"/>
      <point x="220" y="700" type="curve" smooth="yes"/>
      <point x="232" y="701"/>
      <point x="256" y="701"/>
      <point x="268" y="699" type="curve" smooth="yes"/>
      <point x="282" y="696"/>
      <point x="286" y="693"/>
      <point x="294" y="684" type="curve" smooth="yes"/>
      <point x="367" y="602"/>
      <point x="432" y="494"/>
      <point x="462" y="404" type="curve" smooth="yes"/>
      <point x="493" y="311"/>
      <point x="494" y="212"/>
      <point x="465" y="135" type="curve" smooth="yes"/>
      <point x="440" y="66"/>
      <point x="394" y="20"/>
      <point x="332" y="0" type="curve" smooth="yes"/>
      <point x="253" y="-26"/>
      <point x="142" y="-17"/>
      <point x="86" y="20" type="curve" smooth="yes"/>
      <point x="26" y="59"/>
      <point x="1" y="135"/>
      <point x="3" y="266" type="curve" smooth="yes"/>
      <point x="4" y="325"/>
      <point x="8" y="362"/>
      <point x="23" y="503" type="curve" smooth="yes"/>
      <point x="38" y="635"/>
      <point x="40" y="672"/>
      <point x="40" y="730" type="curve" smooth="yes"/>
      <point x="40" y="811"/>
      <point x="33" y="877"/>
      <point x="6" y="1039" type="curve" smooth="yes"/>
      <point x="-16" y="1177"/>
      <point x="-22" y="1220"/>
      <point x="-27" y="1283" type="curve" smooth="yes"/>
      <point x="-29" y="1305"/>
      <point x="-29" y="1369"/>
      <point x="-27" y="1387" type="curve" smooth="yes"/>
      <point x="-20" y="1457"/>
      <point x="-1" y="1506"/>
      <point x="35" y="1542" type="curve" smooth="yes"/>
      <point x="41" y="1548"/>
      <point x="50" y="1556"/>
      <point x="54" y="1560" type="curve" smooth="yes"/>
      <point x="94" y="1590"/>
      <point x="154" y="1609"/>
    </contour>
  </outline>
</glyph>
<glyph name="H" format="1">
  <advance width="710"/>
  <unicode hex="0048"/>
  <outline>
    <contour>
      <point x="97" y="1615" type="curve" smooth="yes"/>
      <point x="99" y="1616"/>
      <point x="103" y="1616"/>
      <point x="104" y="1616" type="curve" smooth="yes"/>
      <point x="110" y="1616"/>
      <point x="130" y="1614"/>
      <point x="137" y="1612" type="curve" smooth="yes"/>
      <point x="147" y="1610"/>
      <point x="152" y="1607"/>
      <point x="154" y="1604" type="curve" smooth="yes"/>
      <point x="156" y="1602"/>
      <point x="156" y="1558"/>
      <point x="156" y="1151" type="curve" smooth="yes"/>
      <point x="156" y="701" type="line"/>
      <point x="255" y="701" type="line"/>
      <point x="354" y="701" type="line"/>
      <point x="354" y="1151" type="line"/>
      <point x="354" y="1602" type="line"/>
      <point x="356" y="1604" type="line" smooth="yes"/>
      <point x="360" y="1609"/>
      <point x="375" y="1613"/>
      <point x="393" y="1615" type="curve" smooth="yes"/>
      <point x="418" y="1617"/>
      <point x="448" y="1612"/>
      <point x="453" y="1604" type="curve" smooth="yes"/>
      <point x="455" y="1602"/>
      <point x="455" y="1526"/>
      <point x="455" y="800" type="curve" smooth="yes"/>
      <point x="455" y="74"/>
      <point x="455" y="-2"/>
      <point x="453" y="-4" type="curve" smooth="yes"/>
      <point x="451" y="-7"/>
      <point x="446" y="-9"/>
      <point x="436" y="-12" type="curve" smooth="yes"/>
      <point x="426" y="-15"/>
      <point x="397" y="-16"/>
      <point x="384" y="-14" type="curve" smooth="yes"/>
      <point x="372" y="-12"/>
      <point x="360" y="-8"/>
      <point x="357" y="-5" type="curve" smooth="yes"/>
      <point x="354" y="-2" type="line"/>
      <point x="354" y="334" type="line"/>
      <point x="354" y="670" type="line"/>
      <point x="255" y="670" type="line"/>
      <point x="156" y="670" type="line"/>
      <point x="156" y="334" type="line" smooth="yes"/>
      <point x="156" y="31"/>
      <point x="156" y="-2"/>
      <point x="154" y="-4" type="curve" smooth="yes"/>
      <point x="152" y="-7"/>
      <point x="147" y="-9"/>
      <point x="137" y="-12" type="curve" smooth="yes"/>
      <point x="127" y="-15"/>
      <point x="98" y="-16"/>
      <point x="85" y="-14" type="curve" smooth="yes"/>
      <point x="73" y="-12"/>
      <point x="61" y="-8"/>
      <point x="58" y="-5" type="curve" smooth="yes"/>
      <point x="55" y="-2" type="line"/>
      <point x="55" y="800" type="line"/>
      <point x="55" y="1602" type="line"/>
      <point x="58" y="1605" type="line" smooth="yes"/>
      <point x="62" y="1610"/>
      <point x="79" y="1614"/>
    </contour>
  </outline>
</glyph>
<glyph name="I" format="1">
  <advance width="210"/>
  <unicode hex="0049"/>
  <outline>
    <contour>
      <point x="16" y="1615" type="curve" smooth="yes"/>
      <point x="17" y="1616"/>
      <point x="93" y="1616"/>
      <point x="185" y="1616" type="curve" smooth="yes"/>
      <point x="340" y="1615"/>
      <point x="351" y="1615"/>
      <point x="358" y="1614" type="curve" smooth="yes"/>
      <point x="362" y="1613"/>
      <point x="368" y="1611"/>
      <point x="371" y="1610" type="curve" smooth="yes"/>
      <point x="376" y="1608"/>
      <point x="381" y="1603"/>
      <point x="381" y="1601" type="curve" smooth="yes"/>
      <point x="381" y="1598"/>
      <point x="376" y="1593"/>
      <point x="371" y="1591" type="curve" smooth="yes"/>
      <point x="357" y="1586"/>
      <point x="355" y="1586"/>
      <point x="291" y="1585" type="curve"/>
      <point x="231" y="1585" type="line"/>
      <point x="231" y="800" type="line"/>
      <point x="231" y="16" type="line"/>
      <point x="291" y="16" type="line"/>
      <point x="355" y="15"/>
      <point x="357" y="15"/>
      <point x="371" y="10" type="curve" smooth="yes"/>
      <point x="376" y="8"/>
      <point x="381" y="3"/>
      <point x="381" y="0" type="curve" smooth="yes"/>
      <point x="381" y="-2"/>
      <point x="376" y="-7"/>
      <point x="371" y="-9" type="curve" smooth="yes"/>
      <point x="368" y="-10"/>
      <point x="362" y="-12"/>
      <point x="357" y="-13" type="curve" smooth="yes"/>
      <point x="349" y="-14"/>
      <point x="340" y="-14"/>
      <point x="181" y="-14" type="curve" smooth="yes"/>
      <point x="4" y="-14"/>
      <point x="9" y="-15"/>
      <point x="-6" y="-10" type="curve" smooth="yes"/>
      <point x="-14" y="-8"/>
      <point x="-20" y="-3"/>
      <point x="-20" y="0" type="curve" smooth="yes"/>
      <point x="-20" y="4"/>
      <point x="-14" y="8"/>
      <point x="-8" y="10" type="curve" smooth="yes"/>
      <point x="6" y="15"/>
      <point x="7" y="15"/>
      <point x="70" y="16" type="curve"/>
      <point x="130" y="16" type="line"/>
      <point x="130" y="801" type="line"/>
      <point x="130" y="1585" type="line"/>
      <point x="70" y="1585" type="line"/>
      <point x="7" y="1586"/>
      <point x="6" y="1586"/>
      <point x="-8" y="1591" type="curve" smooth="yes"/>
      <point x="-14" y="1593"/>
      <point x="-20" y="1597"/>
      <point x="-20" y="1601" type="curve" smooth="yes"/>
      <point x="-20" y="1607"/>
      <point x="-7" y="1613"/>
    </contour>
  </outline>
</glyph>
<glyph name="J" format="1">
  <advance width="620"/>
  <unicode hex="004A"/>
  <outline>
    <contour>
      <point x="16" y="1615" type="curve" smooth="yes"/>
      <point x="17" y="1616"/>
      <point x="91" y="1616"/>
      <point x="180" y="1616" type="curve" smooth="yes"/>
      <point x="319" y="1616"/>
      <point x="343" y="1616"/>
      <point x="352" y="1614" type="curve"/>
      <point x="364" y="1613"/>
      <point x="373" y="1610"/>
      <point x="378" y="1606" type="curve" smooth="yes"/>
      <point x="381" y="1603" type="line"/>
      <point x="381" y="1146" type="line"/>
      <point x="381" y="690" type="line"/>
      <point x="391" y="685" type="line" smooth="yes"/>
      <point x="428" y="667"/>
      <point x="466" y="638"/>
      <point x="495" y="607" type="curve" smooth="yes"/>
      <point x="547" y="552"/>
      <point x="578" y="485"/>
      <point x="588" y="407" type="curve" smooth="yes"/>
      <point x="590" y="387"/>
      <point x="590" y="340"/>
      <point x="588" y="320" type="curve" smooth="yes"/>
      <point x="583" y="284"/>
      <point x="576" y="255"/>
      <point x="563" y="222" type="curve" smooth="yes"/>
      <point x="526" y="126"/>
      <point x="454" y="54"/>
      <point x="360" y="16" type="curve" smooth="yes"/>
      <point x="252" y="-27"/>
      <point x="105" y="-27"/>
      <point x="-2" y="17" type="curve" smooth="yes"/>
      <point x="-106" y="60"/>
      <point x="-181" y="143"/>
      <point x="-214" y="253" type="curve" smooth="yes"/>
      <point x="-234" y="319"/>
      <point x="-235" y="391"/>
      <point x="-218" y="459" type="curve"/>
      <point x="-192" y="557"/>
      <point x="-124" y="638"/>
      <point x="-27" y="687" type="curve" smooth="yes"/>
      <point x="-9" y="695"/>
      <point x="-1" y="698"/>
      <point x="13" y="700" type="curve" smooth="yes"/>
      <point x="38" y="703"/>
      <point x="69" y="699"/>
      <point x="78" y="691" type="curve" smooth="yes"/>
      <point x="85" y="685"/>
      <point x="82" y="681"/>
      <point x="61" y="671" type="curve" smooth="yes"/>
      <point x="-2" y="640"/>
      <point x="-51" y="594"/>
      <point x="-85" y="535" type="curve" smooth="yes"/>
      <point x="-156" y="410"/>
      <point x="-139" y="240"/>
      <point x="-44" y="126" type="curve" smooth="yes"/>
      <point x="6" y="67"/>
      <point x="73" y="28"/>
      <point x="146" y="17" type="curve" smooth="yes"/>
      <point x="159" y="15"/>
      <point x="197" y="15"/>
      <point x="211" y="17" type="curve" smooth="yes"/>
      <point x="261" y="24"/>
      <point x="308" y="43"/>
      <point x="350" y="75" type="curve" smooth="yes"/>
      <point x="393" y="107"/>
      <point x="428" y="151"/>
      <point x="452" y="202" type="curve" smooth="yes"/>
      <point x="504" y="310"/>
      <point x="500" y="440"/>
      <point x="443" y="538" type="curve" smooth="yes"/>
      <point x="428" y="563"/>
      <point x="411" y="585"/>
      <point x="390" y="606" type="curve" smooth="yes"/>
      <point x="364" y="632"/>
      <point x="336" y="652"/>
      <point x="301" y="671" type="curve" smooth="yes"/>
      <point x="292" y="675"/>
      <point x="283" y="680"/>
      <point x="282" y="681" type="curve" smooth="yes"/>
      <point x="280" y="683" type="line"/>
      <point x="280" y="1134" type="line"/>
      <point x="280" y="1585" type="line"/>
      <point x="145" y="1585" type="line"/>
      <point x="0" y="1586"/>
      <point x="7" y="1585"/>
      <point x="-8" y="1591" type="curve" smooth="yes"/>
      <point x="-14" y="1593"/>
      <point x="-20" y="1597"/>
      <point x="-20" y="1601" type="curve" smooth="yes"/>
      <point x="-20" y="1607"/>
      <point x="-6" y="1613"/>
    </contour>
  </outline>
</glyph>
<glyph name="K" format="1">
  <advance width="635"/>
  <unicode hex="004B"/>
  <outline>
    <contour>
      <point x="97" y="1615" type="curve" smooth="yes"/>
      <point x="99" y="1616"/>
      <point x="103" y="1616"/>
      <point x="104" y="1616" type="curve" smooth="yes"/>
      <point x="105" y="1616"/>
      <point x="112" y="1616"/>
      <point x="118" y="1615" type="curve" smooth="yes"/>
      <point x="135" y="1613"/>
      <point x="150" y="1609"/>
      <point x="154" y="1604" type="curve" smooth="yes"/>
      <point x="155" y="1603"/>
      <point x="156" y="1561"/>
      <point x="156" y="1300" type="curve" smooth="yes"/>
      <point x="157" y="997" type="line"/>
      <point x="255" y="1300" type="line"/>
      <point x="310" y="1466"/>
      <point x="355" y="1603"/>
      <point x="356" y="1605" type="curve" smooth="yes"/>
      <point x="362" y="1612"/>
      <point x="393" y="1617"/>
      <point x="417" y="1615" type="curve" smooth="yes"/>
      <point x="437" y="1613"/>
      <point x="451" y="1609"/>
      <point x="454" y="1603" type="curve" smooth="yes"/>
      <point x="455" y="1600"/>
      <point x="449" y="1579"/>
      <point x="306" y="1144" type="curve"/>
      <point x="219" y="876"/>
      <point x="157" y="686"/>
      <point x="157" y="685" type="curve" smooth="yes"/>
      <point x="158" y="683"/>
      <point x="224" y="530"/>
      <point x="305" y="344" type="curve" smooth="yes"/>
      <point x="387" y="158"/>
      <point x="454" y="4"/>
      <point x="454" y="2" type="curve" smooth="yes"/>
      <point x="456" y="-4"/>
      <point x="451" y="-8"/>
      <point x="436" y="-12" type="curve" smooth="yes"/>
      <point x="426" y="-15"/>
      <point x="397" y="-16"/>
      <point x="384" y="-14" type="curve" smooth="yes"/>
      <point x="372" y="-12"/>
      <point x="360" y="-8"/>
      <point x="357" y="-5" type="curve" smooth="yes"/>
      <point x="355" y="-3"/>
      <point x="320" y="76"/>
      <point x="255" y="225" type="curve" smooth="yes"/>
      <point x="157" y="452" type="line"/>
      <point x="156" y="224" type="line" smooth="yes"/>
      <point x="156" y="29"/>
      <point x="155" y="-3"/>
      <point x="154" y="-4" type="curve" smooth="yes"/>
      <point x="152" y="-7"/>
      <point x="146" y="-10"/>
      <point x="137" y="-12" type="curve" smooth="yes"/>
      <point x="127" y="-15"/>
      <point x="98" y="-16"/>
      <point x="85" y="-14" type="curve" smooth="yes"/>
      <point x="73" y="-12"/>
      <point x="61" y="-8"/>
      <point x="58" y="-5" type="curve" smooth="yes"/>
      <point x="55" y="-2" type="line"/>
      <point x="55" y="800" type="line"/>
      <point x="55" y="1602" type="line"/>
      <point x="58" y="1605" type="line" smooth="yes"/>
      <point x="62" y="1610"/>
      <point x="79" y="1614"/>
    </contour>
  </outline>
</glyph>
<glyph name="L" format="1">
  <advance width="635"/>
  <unicode hex="004C"/>
  <outline>
    <contour>
      <point x="97" y="1615" type="curve" smooth="yes"/>
      <point x="99" y="1616"/>
      <point x="103" y="1616"/>
      <point x="104" y="1616" type="curve" smooth="yes"/>
      <point x="110" y="1616"/>
      <point x="130" y="1614"/>
      <point x="137" y="1612" type="curve" smooth="yes"/>
      <point x="147" y="1610"/>
      <point x="152" y="1607"/>
      <point x="154" y="1604" type="curve" smooth="yes"/>
      <point x="156" y="1602"/>
      <point x="156" y="1527"/>
      <point x="156" y="809" type="curve" smooth="yes"/>
      <point x="156" y="16" type="line"/>
      <point x="286" y="16" type="line" smooth="yes"/>
      <point x="425" y="16"/>
      <point x="427" y="16"/>
      <point x="442" y="11" type="curve" smooth="yes"/>
      <point x="449" y="8"/>
      <point x="455" y="4"/>
      <point x="455" y="1" type="curve" smooth="yes"/>
      <point x="455" y="-5"/>
      <point x="443" y="-11"/>
      <point x="425" y="-13" type="curve" smooth="yes"/>
      <point x="416" y="-15"/>
      <point x="396" y="-15"/>
      <point x="250" y="-15" type="curve" smooth="yes"/>
      <point x="99" y="-14"/>
      <point x="85" y="-14"/>
      <point x="79" y="-13" type="curve" smooth="yes"/>
      <point x="67" y="-10"/>
      <point x="62" y="-8"/>
      <point x="58" y="-5" type="curve" smooth="yes"/>
      <point x="55" y="-2" type="line"/>
      <point x="55" y="800" type="line"/>
      <point x="55" y="1602" type="line"/>
      <point x="58" y="1605" type="line" smooth="yes"/>
      <point x="62" y="1610"/>
      <point x="79" y="1614"/>
    </contour>
  </outline>
</glyph>
<glyph name="M" format="1">
  <advance width="810"/>
  <unicode hex="004D"/>
  <outline>
    <contour>
      <point x="97" y="1615" type="curve" smooth="yes"/>
      <point x="99" y="1616"/>
      <point x="103" y="1616"/>
      <point x="104" y="1616" type="curve" smooth="yes"/>
      <point x="110" y="1616"/>
      <point x="130" y="1614"/>
      <point x="137" y="1612" type="curve" smooth="yes"/>
      <point x="147" y="1609"/>
      <point x="152" y="1607"/>
      <point x="154" y="1604" type="curve" smooth="yes"/>
      <point x="155" y="1602"/>
      <point x="174" y="1489"/>
      <point x="205" y="1300" type="curve" smooth="yes"/>
      <point x="232" y="1134"/>
      <point x="255" y="998"/>
      <point x="255" y="998" type="curve"/>
      <point x="255" y="998"/>
      <point x="278" y="1134"/>
      <point x="305" y="1300" type="curve" smooth="yes"/>
      <point x="337" y="1498"/>
      <point x="355" y="1602"/>
      <point x="356" y="1604" type="curve" smooth="yes"/>
      <point x="359" y="1609"/>
      <point x="374" y="1613"/>
      <point x="393" y="1615" type="curve" smooth="yes"/>
      <point x="418" y="1617"/>
      <point x="448" y="1612"/>
      <point x="453" y="1604" type="curve" smooth="yes"/>
      <point x="455" y="1602"/>
      <point x="455" y="1526"/>
      <point x="455" y="800" type="curve" smooth="yes"/>
      <point x="455" y="74"/>
      <point x="455" y="-2"/>
      <point x="453" y="-4" type="curve" smooth="yes"/>
      <point x="451" y="-7"/>
      <point x="446" y="-9"/>
      <point x="436" y="-12" type="curve" smooth="yes"/>
      <point x="426" y="-15"/>
      <point x="397" y="-16"/>
      <point x="384" y="-14" type="curve" smooth="yes"/>
      <point x="373" y="-12"/>
      <point x="361" y="-9"/>
      <point x="357" y="-6" type="curve"/>
      <point x="355" y="-3" type="line"/>
      <point x="354" y="488" type="line"/>
      <point x="354" y="978" type="line"/>
      <point x="330" y="831" type="line" smooth="yes"/>
      <point x="307" y="691"/>
      <point x="305" y="683"/>
      <point x="303" y="681" type="curve" smooth="yes"/>
      <point x="300" y="678"/>
      <point x="293" y="675"/>
      <point x="282" y="672" type="curve" smooth="yes"/>
      <point x="271" y="670"/>
      <point x="240" y="670"/>
      <point x="229" y="672" type="curve" smooth="yes"/>
      <point x="219" y="674"/>
      <point x="211" y="678"/>
      <point x="207" y="680" type="curve" smooth="yes"/>
      <point x="205" y="682"/>
      <point x="204" y="687"/>
      <point x="181" y="830" type="curve" smooth="yes"/>
      <point x="157" y="978" type="line"/>
      <point x="156" y="488" type="line" smooth="yes"/>
      <point x="156" y="64"/>
      <point x="155" y="-3"/>
      <point x="154" y="-4" type="curve" smooth="yes"/>
      <point x="152" y="-7"/>
      <point x="146" y="-10"/>
      <point x="137" y="-12" type="curve" smooth="yes"/>
      <point x="127" y="-15"/>
      <point x="98" y="-16"/>
      <point x="85" y="-14" type="curve" smooth="yes"/>
      <point x="73" y="-12"/>
      <point x="61" y="-8"/>
      <point x="58" y="-5" type="curve" smooth="yes"/>
      <point x="55" y="-2" type="line"/>
      <point x="55" y="800" type="line"/>
      <point x="55" y="1602" type="line"/>
      <point x="58" y="1605" type="line" smooth="yes"/>
      <point x="62" y="1610"/>
      <point x="79" y="1614"/>
    </contour>
  </outline>
</glyph>
<glyph name="N" format="1">
  <advance width="710"/>
  <unicode hex="004E"/>
  <outline>
    <contour>
      <point x="97" y="1615" type="curve" smooth="yes"/>
      <point x="99" y="1616"/>
      <point x="103" y="1616"/>
      <point x="104" y="1616" type="curve" smooth="yes"/>
      <point x="110" y="1616"/>
      <point x="130" y="1614"/>
      <point x="137" y="1612" type="curve" smooth="yes"/>
      <point x="147" y="1609"/>
      <point x="152" y="1607"/>
      <point x="154" y="1604" type="curve" smooth="yes"/>
      <point x="155" y="1602"/>
      <point x="198" y="1377"/>
      <point x="255" y="1073" type="curve" smooth="yes"/>
      <point x="354" y="544" type="line"/>
      <point x="354" y="1073" type="line" smooth="yes"/>
      <point x="354" y="1590"/>
      <point x="355" y="1603"/>
      <point x="356" y="1605" type="curve" smooth="yes"/>
      <point x="360" y="1609"/>
      <point x="375" y="1613"/>
      <point x="393" y="1615" type="curve" smooth="yes"/>
      <point x="418" y="1617"/>
      <point x="448" y="1612"/>
      <point x="453" y="1604" type="curve" smooth="yes"/>
      <point x="455" y="1602"/>
      <point x="455" y="1526"/>
      <point x="455" y="800" type="curve" smooth="yes"/>
      <point x="455" y="74"/>
      <point x="455" y="-2"/>
      <point x="453" y="-4" type="curve" smooth="yes"/>
      <point x="451" y="-7"/>
      <point x="446" y="-9"/>
      <point x="436" y="-12" type="curve" smooth="yes"/>
      <point x="428" y="-14"/>
      <point x="426" y="-14"/>
      <point x="405" y="-14" type="curve" smooth="yes"/>
      <point x="384" y="-14"/>
      <point x="381" y="-14"/>
      <point x="374" y="-12" type="curve" smooth="yes"/>
      <point x="363" y="-9"/>
      <point x="357" y="-7"/>
      <point x="356" y="-4" type="curve" smooth="yes"/>
      <point x="355" y="-2"/>
      <point x="316" y="205"/>
      <point x="255" y="527" type="curve"/>
      <point x="157" y="1056" type="line"/>
      <point x="156" y="527" type="line" smooth="yes"/>
      <point x="156" y="69"/>
      <point x="155" y="-3"/>
      <point x="154" y="-4" type="curve" smooth="yes"/>
      <point x="152" y="-7"/>
      <point x="146" y="-10"/>
      <point x="137" y="-12" type="curve" smooth="yes"/>
      <point x="127" y="-15"/>
      <point x="98" y="-16"/>
      <point x="85" y="-14" type="curve" smooth="yes"/>
      <point x="73" y="-12"/>
      <point x="61" y="-8"/>
      <point x="58" y="-5" type="curve" smooth="yes"/>
      <point x="55" y="-2" type="line"/>
      <point x="55" y="800" type="line"/>
      <point x="55" y="1602" type="line"/>
      <point x="58" y="1605" type="line" smooth="yes"/>
      <point x="62" y="1610"/>
      <point x="79" y="1614"/>
    </contour>
  </outline>
</glyph>
<glyph name="O" format="1">
  <advance width="680"/>
  <unicode hex="004F"/>
  <outline>
    <contour>
      <point x="216" y="1678" type="curve" smooth="yes"/>
      <point x="228" y="1679"/>
      <point x="272" y="1678"/>
      <point x="286" y="1676" type="curve" smooth="yes"/>
      <point x="343" y="1668"/>
      <point x="387" y="1650"/>
      <point x="424" y="1619" type="curve" smooth="yes"/>
      <point x="481" y="1570"/>
      <point x="507" y="1503"/>
      <point x="505" y="1417" type="curve" smooth="yes"/>
      <point x="503" y="1351"/>
      <point x="489" y="1291"/>
      <point x="446" y="1161" type="curve" smooth="yes"/>
      <point x="426" y="1100"/>
      <point x="415" y="1060"/>
      <point x="405" y="1017" type="curve" smooth="yes"/>
      <point x="390" y="952"/>
      <point x="382" y="898"/>
      <point x="377" y="831" type="curve" smooth="yes"/>
      <point x="375" y="809"/>
      <point x="375" y="734"/>
      <point x="377" y="714" type="curve" smooth="yes"/>
      <point x="385" y="607"/>
      <point x="407" y="524"/>
      <point x="450" y="439" type="curve" smooth="yes"/>
      <point x="464" y="411"/>
      <point x="470" y="400"/>
      <point x="500" y="346" type="curve" smooth="yes"/>
      <point x="533" y="287"/>
      <point x="541" y="273"/>
      <point x="556" y="244" type="curve" smooth="yes"/>
      <point x="581" y="192"/>
      <point x="595" y="151"/>
      <point x="602" y="111" type="curve" smooth="yes"/>
      <point x="612" y="48"/>
      <point x="602" y="-13"/>
      <point x="571" y="-76" type="curve" smooth="yes"/>
      <point x="556" y="-107"/>
      <point x="538" y="-131"/>
      <point x="514" y="-155" type="curve" smooth="yes"/>
      <point x="476" y="-193"/>
      <point x="436" y="-217"/>
      <point x="383" y="-235" type="curve" smooth="yes"/>
      <point x="294" y="-266"/>
      <point x="186" y="-266"/>
      <point x="97" y="-235" type="curve" smooth="yes"/>
      <point x="44" y="-217"/>
      <point x="4" y="-193"/>
      <point x="-34" y="-155" type="curve" smooth="yes"/>
      <point x="-58" y="-131"/>
      <point x="-76" y="-107"/>
      <point x="-91" y="-76" type="curve" smooth="yes"/>
      <point x="-132" y="6"/>
      <point x="-137" y="83"/>
      <point x="-106" y="171" type="curve" smooth="yes"/>
      <point x="-98" y="194"/>
      <point x="-90" y="215"/>
      <point x="-76" y="244" type="curve" smooth="yes"/>
      <point x="-61" y="273"/>
      <point x="-53" y="287"/>
      <point x="-20" y="346" type="curve" smooth="yes"/>
      <point x="18" y="413"/>
      <point x="34" y="444"/>
      <point x="48" y="477" type="curve" smooth="yes"/>
      <point x="79" y="549"/>
      <point x="96" y="623"/>
      <point x="103" y="714" type="curve" smooth="yes"/>
      <point x="105" y="734"/>
      <point x="105" y="809"/>
      <point x="103" y="831" type="curve" smooth="yes"/>
      <point x="98" y="898"/>
      <point x="90" y="952"/>
      <point x="75" y="1017" type="curve" smooth="yes"/>
      <point x="65" y="1060"/>
      <point x="54" y="1100"/>
      <point x="34" y="1161" type="curve" smooth="yes"/>
      <point x="-9" y="1291"/>
      <point x="-23" y="1351"/>
      <point x="-25" y="1417" type="curve" smooth="yes"/>
      <point x="-27" y="1503"/>
      <point x="-1" y="1570"/>
      <point x="57" y="1619" type="curve" smooth="yes"/>
      <point x="97" y="1653"/>
      <point x="149" y="1673"/>
    </contour>
    <contour>
      <point x="255" y="1646" type="curve" smooth="yes"/>
      <point x="243" y="1648"/>
      <point x="236" y="1648"/>
      <point x="224" y="1646" type="curve" smooth="yes"/>
      <point x="196" y="1640"/>
      <point x="162" y="1620"/>
      <point x="139" y="1596" type="curve" smooth="yes"/>
      <point x="94" y="1550"/>
      <point x="74" y="1491"/>
      <point x="76" y="1417" type="curve"/>
      <point x="79" y="1352"/>
      <point x="92" y="1292"/>
      <point x="135" y="1163" type="curve" smooth="yes"/>
      <point x="155" y="1102"/>
      <point x="166" y="1062"/>
      <point x="176" y="1019" type="curve" smooth="yes"/>
      <point x="191" y="954"/>
      <point x="199" y="900"/>
      <point x="204" y="833" type="curve" smooth="yes"/>
      <point x="206" y="811"/>
      <point x="206" y="733"/>
      <point x="204" y="712" type="curve" smooth="yes"/>
      <point x="196" y="605"/>
      <point x="174" y="523"/>
      <point x="131" y="436" type="curve" smooth="yes"/>
      <point x="117" y="406"/>
      <point x="110" y="393"/>
      <point x="79" y="339" type="curve" smooth="yes"/>
      <point x="47" y="283"/>
      <point x="39" y="269"/>
      <point x="26" y="242" type="curve" smooth="yes"/>
      <point x="-24" y="142"/>
      <point x="-36" y="68"/>
      <point x="-15" y="-10" type="curve" smooth="yes"/>
      <point x="-1" y="-60"/>
      <point x="25" y="-107"/>
      <point x="61" y="-144" type="curve" smooth="yes"/>
      <point x="108" y="-193"/>
      <point x="180" y="-227"/>
      <point x="240" y="-227" type="curve" smooth="yes"/>
      <point x="284" y="-227"/>
      <point x="337" y="-208"/>
      <point x="381" y="-177" type="curve" smooth="yes"/>
      <point x="420" y="-149"/>
      <point x="450" y="-113"/>
      <point x="473" y="-67" type="curve" smooth="yes"/>
      <point x="498" y="-17"/>
      <point x="508" y="36"/>
      <point x="504" y="85" type="curve" smooth="yes"/>
      <point x="500" y="133"/>
      <point x="484" y="181"/>
      <point x="454" y="242" type="curve" smooth="yes"/>
      <point x="441" y="269"/>
      <point x="433" y="283"/>
      <point x="401" y="339" type="curve" smooth="yes"/>
      <point x="370" y="393"/>
      <point x="363" y="406"/>
      <point x="349" y="436" type="curve" smooth="yes"/>
      <point x="306" y="523"/>
      <point x="284" y="605"/>
      <point x="276" y="712" type="curve" smooth="yes"/>
      <point x="274" y="733"/>
      <point x="274" y="811"/>
      <point x="276" y="833" type="curve" smooth="yes"/>
      <point x="281" y="900"/>
      <point x="289" y="954"/>
      <point x="304" y="1019" type="curve" smooth="yes"/>
      <point x="314" y="1062"/>
      <point x="325" y="1102"/>
      <point x="345" y="1163" type="curve" smooth="yes"/>
      <point x="377" y="1259"/>
      <point x="391" y="1309"/>
      <point x="398" y="1358" type="curve" smooth="yes"/>
      <point x="414" y="1464"/>
      <point x="396" y="1538"/>
      <point x="341" y="1596" type="curve" smooth="yes"/>
      <point x="318" y="1620"/>
      <point x="284" y="1640"/>
    </contour>
  </outline>
</glyph>
<glyph name="P" format="1">
  <advance width="650"/>
  <unicode hex="0050"/>
  <outline>
    <contour>
      <point x="97" y="1615" type="curve" smooth="yes"/>
      <point x="99" y="1616"/>
      <point x="103" y="1616"/>
      <point x="104" y="1616" type="curve" smooth="yes"/>
      <point x="110" y="1616"/>
      <point x="130" y="1614"/>
      <point x="137" y="1612" type="curve" smooth="yes"/>
      <point x="151" y="1608"/>
      <point x="188" y="1590"/>
      <point x="215" y="1573" type="curve" smooth="yes"/>
      <point x="260" y="1545"/>
      <point x="303" y="1508"/>
      <point x="336" y="1469" type="curve" smooth="yes"/>
      <point x="414" y="1377"/>
      <point x="456" y="1262"/>
      <point x="456" y="1142" type="curve" smooth="yes"/>
      <point x="456" y="1038"/>
      <point x="423" y="935"/>
      <point x="363" y="851" type="curve" smooth="yes"/>
      <point x="325" y="797"/>
      <point x="274" y="749"/>
      <point x="218" y="714" type="curve" smooth="yes"/>
      <point x="202" y="704"/>
      <point x="179" y="691"/>
      <point x="167" y="686" type="curve" smooth="yes"/>
      <point x="156" y="681" type="line"/>
      <point x="156" y="340" type="line" smooth="yes"/>
      <point x="156" y="32"/>
      <point x="156" y="-2"/>
      <point x="154" y="-4" type="curve" smooth="yes"/>
      <point x="152" y="-7"/>
      <point x="147" y="-9"/>
      <point x="137" y="-12" type="curve" smooth="yes"/>
      <point x="127" y="-15"/>
      <point x="98" y="-16"/>
      <point x="85" y="-14" type="curve" smooth="yes"/>
      <point x="73" y="-12"/>
      <point x="61" y="-8"/>
      <point x="58" y="-5" type="curve" smooth="yes"/>
      <point x="55" y="-2" type="line"/>
      <point x="55" y="800" type="line"/>
      <point x="55" y="1602" type="line"/>
      <point x="58" y="1605" type="line" smooth="yes"/>
      <point x="62" y="1610"/>
      <point x="79" y="1614"/>
    </contour>
    <contour>
      <point x="163" y="1532" type="curve" smooth="yes"/>
      <point x="160" y="1535"/>
      <point x="157" y="1537"/>
      <point x="157" y="1537" type="curve" smooth="yes"/>
      <point x="156" y="1537"/>
      <point x="156" y="1359"/>
      <point x="156" y="1143" type="curve" smooth="yes"/>
      <point x="156" y="926"/>
      <point x="156" y="748"/>
      <point x="157" y="748" type="curve" smooth="yes"/>
      <point x="157" y="748"/>
      <point x="163" y="752"/>
      <point x="169" y="758" type="curve"/>
      <point x="266" y="834"/>
      <point x="331" y="946"/>
      <point x="349" y="1067" type="curve" smooth="yes"/>
      <point x="371" y="1210"/>
      <point x="331" y="1350"/>
      <point x="237" y="1462" type="curve" smooth="yes"/>
      <point x="218" y="1485"/>
      <point x="187" y="1514"/>
    </contour>
  </outline>
</glyph>
<glyph name="Q" format="1">
  <advance width="680"/>
  <unicode hex="0051"/>
  <outline>
    <contour>
      <point x="212" y="1854" type="curve" smooth="yes"/>
      <point x="224" y="1855"/>
      <point x="276" y="1854"/>
      <point x="290" y="1853" type="curve" smooth="yes"/>
      <point x="360" y="1845"/>
      <point x="423" y="1823"/>
      <point x="471" y="1789" type="curve" smooth="yes"/>
      <point x="493" y="1774"/>
      <point x="521" y="1748"/>
      <point x="536" y="1729" type="curve" smooth="yes"/>
      <point x="555" y="1706"/>
      <point x="573" y="1674"/>
      <point x="584" y="1646" type="curve" smooth="yes"/>
      <point x="617" y="1564"/>
      <point x="614" y="1490"/>
      <point x="577" y="1398" type="curve" smooth="yes"/>
      <point x="561" y="1357"/>
      <point x="544" y="1325"/>
      <point x="496" y="1243" type="curve" smooth="yes"/>
      <point x="455" y="1171"/>
      <point x="436" y="1137"/>
      <point x="421" y="1100" type="curve" smooth="yes"/>
      <point x="378" y="1001"/>
      <point x="357" y="892"/>
      <point x="359" y="786" type="curve" smooth="yes"/>
      <point x="360" y="757"/>
      <point x="361" y="742"/>
      <point x="364" y="714" type="curve" smooth="yes"/>
      <point x="366" y="697"/>
      <point x="371" y="662"/>
      <point x="374" y="650" type="curve" smooth="yes"/>
      <point x="375" y="645" type="line"/>
      <point x="390" y="635" type="line"/>
      <point x="450" y="592"/>
      <point x="502" y="538"/>
      <point x="540" y="478" type="curve" smooth="yes"/>
      <point x="621" y="350"/>
      <point x="648" y="196"/>
      <point x="613" y="49" type="curve" smooth="yes"/>
      <point x="611" y="42"/>
      <point x="607" y="27"/>
      <point x="604" y="16" type="curve" smooth="yes"/>
      <point x="601" y="5"/>
      <point x="596" y="-11"/>
      <point x="594" y="-18" type="curve" smooth="yes"/>
      <point x="582" y="-57"/>
      <point x="559" y="-101"/>
      <point x="536" y="-129" type="curve" smooth="yes"/>
      <point x="532" y="-134"/>
      <point x="525" y="-143"/>
      <point x="519" y="-149" type="curve" smooth="yes"/>
      <point x="495" y="-179"/>
      <point x="471" y="-205"/>
      <point x="447" y="-226" type="curve" smooth="yes"/>
      <point x="434" y="-237"/>
      <point x="430" y="-239"/>
      <point x="417" y="-242" type="curve" smooth="yes"/>
      <point x="406" y="-244"/>
      <point x="374" y="-244"/>
      <point x="364" y="-242" type="curve" smooth="yes"/>
      <point x="358" y="-241"/>
      <point x="357" y="-241"/>
      <point x="346" y="-243" type="curve"/>
      <point x="332" y="-247"/>
      <point x="309" y="-250"/>
      <point x="289" y="-253" type="curve"/>
      <point x="267" y="-255"/>
      <point x="213" y="-255"/>
      <point x="191" y="-253" type="curve" smooth="yes"/>
      <point x="119" y="-245"/>
      <point x="57" y="-223"/>
      <point x="9" y="-189" type="curve" smooth="yes"/>
      <point x="-13" y="-174"/>
      <point x="-41" y="-148"/>
      <point x="-56" y="-129" type="curve" smooth="yes"/>
      <point x="-75" y="-106"/>
      <point x="-93" y="-74"/>
      <point x="-104" y="-45" type="curve" smooth="yes"/>
      <point x="-137" y="36"/>
      <point x="-134" y="110"/>
      <point x="-97" y="202" type="curve" smooth="yes"/>
      <point x="-81" y="243"/>
      <point x="-64" y="275"/>
      <point x="-16" y="357" type="curve" smooth="yes"/>
      <point x="25" y="429"/>
      <point x="44" y="463"/>
      <point x="59" y="500" type="curve" smooth="yes"/>
      <point x="131" y="667"/>
      <point x="140" y="855"/>
      <point x="86" y="1028" type="curve" smooth="yes"/>
      <point x="65" y="1095"/>
      <point x="44" y="1139"/>
      <point x="-16" y="1243" type="curve" smooth="yes"/>
      <point x="-72" y="1339"/>
      <point x="-92" y="1378"/>
      <point x="-108" y="1428" type="curve"/>
      <point x="-138" y="1515"/>
      <point x="-132" y="1594"/>
      <point x="-91" y="1675" type="curve" smooth="yes"/>
      <point x="-76" y="1704"/>
      <point x="-58" y="1729"/>
      <point x="-35" y="1752" type="curve" smooth="yes"/>
      <point x="-10" y="1778"/>
      <point x="17" y="1797"/>
      <point x="47" y="1812" type="curve" smooth="yes"/>
      <point x="96" y="1836"/>
      <point x="148" y="1850"/>
    </contour>
    <contour>
      <point x="270" y="1822" type="curve" smooth="yes"/>
      <point x="261" y="1823"/>
      <point x="230" y="1824"/>
      <point x="225" y="1823" type="curve" smooth="yes"/>
      <point x="224" y="1823"/>
      <point x="218" y="1823"/>
      <point x="214" y="1822" type="curve" smooth="yes"/>
      <point x="192" y="1819"/>
      <point x="165" y="1811"/>
      <point x="142" y="1800" type="curve" smooth="yes"/>
      <point x="82" y="1771"/>
      <point x="37" y="1726"/>
      <point x="6" y="1665" type="curve"/>
      <point x="-11" y="1629"/>
      <point x="-22" y="1593"/>
      <point x="-25" y="1556" type="curve" smooth="yes"/>
      <point x="-29" y="1510"/>
      <point x="-20" y="1458"/>
      <point x="3" y="1403" type="curve" smooth="yes"/>
      <point x="18" y="1365"/>
      <point x="36" y="1329"/>
      <point x="79" y="1256" type="curve" smooth="yes"/>
      <point x="117" y="1191"/>
      <point x="135" y="1159"/>
      <point x="148" y="1130" type="curve" smooth="yes"/>
      <point x="209" y="1000"/>
      <point x="232" y="863"/>
      <point x="218" y="721" type="curve" smooth="yes"/>
      <point x="217" y="709"/>
      <point x="216" y="700"/>
      <point x="216" y="699" type="curve" smooth="yes"/>
      <point x="216" y="699"/>
      <point x="219" y="700"/>
      <point x="223" y="700" type="curve" smooth="yes"/>
      <point x="231" y="701"/>
      <point x="249" y="701"/>
      <point x="258" y="700" type="curve" smooth="yes"/>
      <point x="261" y="700"/>
      <point x="264" y="699"/>
      <point x="264" y="700" type="curve" smooth="yes"/>
      <point x="264" y="700"/>
      <point x="263" y="709"/>
      <point x="262" y="721" type="curve" smooth="yes"/>
      <point x="248" y="863"/>
      <point x="271" y="1000"/>
      <point x="332" y="1130" type="curve" smooth="yes"/>
      <point x="345" y="1159"/>
      <point x="363" y="1191"/>
      <point x="401" y="1256" type="curve" smooth="yes"/>
      <point x="444" y="1329"/>
      <point x="462" y="1365"/>
      <point x="477" y="1403" type="curve" smooth="yes"/>
      <point x="500" y="1458"/>
      <point x="509" y="1510"/>
      <point x="505" y="1556" type="curve" smooth="yes"/>
      <point x="502" y="1593"/>
      <point x="491" y="1629"/>
      <point x="474" y="1665" type="curve"/>
      <point x="443" y="1726"/>
      <point x="398" y="1771"/>
      <point x="339" y="1800" type="curve"/>
      <point x="316" y="1810"/>
      <point x="293" y="1818"/>
    </contour>
    <contour>
      <point x="231" y="662" type="curve" smooth="yes"/>
      <point x="221" y="667"/>
      <point x="212" y="671"/>
      <point x="212" y="671" type="curve"/>
      <point x="212" y="671"/>
      <point x="210" y="663"/>
      <point x="208" y="654" type="curve" smooth="yes"/>
      <point x="201" y="615"/>
      <point x="188" y="569"/>
      <point x="175" y="534" type="curve" smooth="yes"/>
      <point x="153" y="475"/>
      <point x="136" y="441"/>
      <point x="79" y="345" type="curve" smooth="yes"/>
      <point x="36" y="271"/>
      <point x="18" y="235"/>
      <point x="3" y="198" type="curve" smooth="yes"/>
      <point x="-20" y="142"/>
      <point x="-29" y="90"/>
      <point x="-25" y="45" type="curve" smooth="yes"/>
      <point x="-22" y="7"/>
      <point x="-11" y="-29"/>
      <point x="6" y="-64" type="curve" smooth="yes"/>
      <point x="41" y="-134"/>
      <point x="96" y="-185"/>
      <point x="166" y="-210" type="curve" smooth="yes"/>
      <point x="192" y="-219"/>
      <point x="214" y="-223"/>
      <point x="240" y="-223" type="curve" smooth="yes"/>
      <point x="261" y="-223"/>
      <point x="270" y="-222"/>
      <point x="291" y="-217" type="curve" smooth="yes"/>
      <point x="337" y="-205"/>
      <point x="386" y="-176"/>
      <point x="419" y="-143" type="curve" smooth="yes"/>
      <point x="436" y="-125"/>
      <point x="466" y="-75"/>
      <point x="482" y="-37" type="curve" smooth="yes"/>
      <point x="489" y="-22"/>
      <point x="498" y="1"/>
      <point x="500" y="9" type="curve" smooth="yes"/>
      <point x="511" y="57"/>
      <point x="507" y="113"/>
      <point x="487" y="171" type="curve" smooth="yes"/>
      <point x="472" y="216"/>
      <point x="452" y="256"/>
      <point x="401" y="345" type="curve" smooth="yes"/>
      <point x="353" y="427"/>
      <point x="336" y="458"/>
      <point x="318" y="501" type="curve" smooth="yes"/>
      <point x="302" y="539"/>
      <point x="291" y="573"/>
      <point x="282" y="612" type="curve"/>
      <point x="275" y="637" type="line"/>
      <point x="262" y="644" type="line"/>
      <point x="255" y="649"/>
      <point x="241" y="656"/>
    </contour>
    <contour>
      <point x="428" y="490" type="curve" smooth="yes"/>
      <point x="424" y="496"/>
      <point x="421" y="501"/>
      <point x="420" y="501" type="curve" smooth="yes"/>
      <point x="419" y="501"/>
      <point x="442" y="453"/>
      <point x="457" y="427" type="curve" smooth="yes"/>
      <point x="468" y="406"/>
      <point x="494" y="361"/>
      <point x="495" y="360" type="curve" smooth="yes"/>
      <point x="497" y="358"/>
      <point x="491" y="374"/>
      <point x="483" y="391" type="curve" smooth="yes"/>
      <point x="469" y="425"/>
      <point x="450" y="460"/>
    </contour>
  </outline>
</glyph>
<glyph name="R" format="1">
  <advance width="665"/>
  <unicode hex="0052"/>
  <outline>
    <contour>
      <point x="97" y="1615" type="curve" smooth="yes"/>
      <point x="99" y="1616"/>
      <point x="103" y="1616"/>
      <point x="104" y="1616" type="curve" smooth="yes"/>
      <point x="110" y="1616"/>
      <point x="130" y="1614"/>
      <point x="137" y="1612" type="curve" smooth="yes"/>
      <point x="151" y="1608"/>
      <point x="188" y="1590"/>
      <point x="215" y="1573" type="curve" smooth="yes"/>
      <point x="260" y="1545"/>
      <point x="303" y="1508"/>
      <point x="336" y="1469" type="curve" smooth="yes"/>
      <point x="436" y="1351"/>
      <point x="476" y="1195"/>
      <point x="446" y="1045" type="curve" smooth="yes"/>
      <point x="416" y="891"/>
      <point x="317" y="761"/>
      <point x="176" y="691" type="curve"/>
      <point x="158" y="681" type="line"/>
      <point x="307" y="342" type="line"/>
      <point x="388" y="155"/>
      <point x="455" y="1"/>
      <point x="455" y="0" type="curve" smooth="yes"/>
      <point x="455" y="-5"/>
      <point x="449" y="-9"/>
      <point x="436" y="-12" type="curve" smooth="yes"/>
      <point x="425" y="-15"/>
      <point x="394" y="-16"/>
      <point x="381" y="-14" type="curve" smooth="yes"/>
      <point x="371" y="-12"/>
      <point x="362" y="-9"/>
      <point x="358" y="-5" type="curve" smooth="yes"/>
      <point x="356" y="-4"/>
      <point x="334" y="45"/>
      <point x="256" y="224" type="curve" smooth="yes"/>
      <point x="157" y="452" type="line"/>
      <point x="156" y="225" type="line" smooth="yes"/>
      <point x="156" y="29"/>
      <point x="155" y="-3"/>
      <point x="154" y="-4" type="curve" smooth="yes"/>
      <point x="152" y="-7"/>
      <point x="146" y="-10"/>
      <point x="137" y="-12" type="curve" smooth="yes"/>
      <point x="127" y="-15"/>
      <point x="98" y="-16"/>
      <point x="85" y="-14" type="curve" smooth="yes"/>
      <point x="73" y="-12"/>
      <point x="61" y="-8"/>
      <point x="58" y="-5" type="curve" smooth="yes"/>
      <point x="55" y="-2" type="line"/>
      <point x="55" y="800" type="line"/>
      <point x="55" y="1602" type="line"/>
      <point x="58" y="1605" type="line" smooth="yes"/>
      <point x="62" y="1610"/>
      <point x="79" y="1614"/>
    </contour>
    <contour>
      <point x="163" y="1532" type="curve" smooth="yes"/>
      <point x="160" y="1535"/>
      <point x="157" y="1537"/>
      <point x="157" y="1537" type="curve" smooth="yes"/>
      <point x="156" y="1537"/>
      <point x="156" y="1359"/>
      <point x="156" y="1143" type="curve" smooth="yes"/>
      <point x="156" y="926"/>
      <point x="156" y="748"/>
      <point x="157" y="748" type="curve" smooth="yes"/>
      <point x="157" y="748"/>
      <point x="163" y="752"/>
      <point x="169" y="758" type="curve"/>
      <point x="266" y="834"/>
      <point x="331" y="946"/>
      <point x="349" y="1067" type="curve" smooth="yes"/>
      <point x="371" y="1210"/>
      <point x="331" y="1350"/>
      <point x="237" y="1462" type="curve" smooth="yes"/>
      <point x="218" y="1485"/>
      <point x="187" y="1514"/>
    </contour>
  </outline>
</glyph>
<glyph name="S" format="1">
  <advance width="620"/>
  <unicode hex="0053"/>
  <outline>
    <contour>
      <point x="160" y="2175" type="curve" smooth="yes"/>
      <point x="206" y="2178"/>
      <point x="265" y="2175"/>
      <point x="312" y="2167" type="curve" smooth="yes"/>
      <point x="412" y="2152"/>
      <point x="503" y="2116"/>
      <point x="574" y="2063" type="curve" smooth="yes"/>
      <point x="595" y="2047"/>
      <point x="611" y="2034"/>
      <point x="632" y="2012" type="curve" smooth="yes"/>
      <point x="653" y="1991"/>
      <point x="665" y="1977"/>
      <point x="681" y="1956" type="curve" smooth="yes"/>
      <point x="752" y="1860"/>
      <point x="793" y="1732"/>
      <point x="797" y="1591" type="curve" smooth="yes"/>
      <point x="800" y="1457"/>
      <point x="744" y="1329"/>
      <point x="641" y="1241" type="curve" smooth="yes"/>
      <point x="570" y="1180"/>
      <point x="484" y="1142"/>
      <point x="385" y="1129" type="curve" smooth="yes"/>
      <point x="354" y="1125"/>
      <point x="322" y="1128"/>
      <point x="312" y="1137" type="curve" smooth="yes"/>
      <point x="308" y="1141"/>
      <point x="308" y="1144"/>
      <point x="312" y="1148" type="curve" smooth="yes"/>
      <point x="317" y="1152"/>
      <point x="326" y="1155"/>
      <point x="345" y="1158" type="curve" smooth="yes"/>
      <point x="387" y="1164"/>
      <point x="419" y="1174"/>
      <point x="456" y="1192" type="curve" smooth="yes"/>
      <point x="513" y="1220"/>
      <point x="561" y="1258"/>
      <point x="600" y="1308" type="curve"/>
      <point x="640" y="1357"/>
      <point x="668" y="1413"/>
      <point x="682" y="1473" type="curve"/>
      <point x="695" y="1524"/>
      <point x="699" y="1571"/>
      <point x="693" y="1630" type="curve"/>
      <point x="683" y="1749"/>
      <point x="651" y="1848"/>
      <point x="595" y="1930" type="curve" smooth="yes"/>
      <point x="559" y="1984"/>
      <point x="512" y="2031"/>
      <point x="459" y="2066" type="curve" smooth="yes"/>
      <point x="366" y="2126"/>
      <point x="259" y="2153"/>
      <point x="154" y="2142" type="curve" smooth="yes"/>
      <point x="95" y="2136"/>
      <point x="32" y="2118"/>
      <point x="-21" y="2091" type="curve"/>
      <point x="-101" y="2052"/>
      <point x="-162" y="1998"/>
      <point x="-207" y="1931" type="curve" smooth="yes"/>
      <point x="-247" y="1871"/>
      <point x="-269" y="1809"/>
      <point x="-279" y="1733" type="curve" smooth="yes"/>
      <point x="-281" y="1711"/>
      <point x="-281" y="1649"/>
      <point x="-279" y="1626" type="curve" smooth="yes"/>
      <point x="-273" y="1571"/>
      <point x="-261" y="1532"/>
      <point x="-240" y="1493" type="curve" smooth="yes"/>
      <point x="-205" y="1430"/>
      <point x="-155" y="1376"/>
      <point x="-57" y="1295" type="curve"/>
      <point x="4" y="1243"/>
      <point x="20" y="1230"/>
      <point x="39" y="1213" type="curve" smooth="yes"/>
      <point x="139" y="1126"/>
      <point x="185" y="1066"/>
      <point x="280" y="899" type="curve" smooth="yes"/>
      <point x="354" y="769"/>
      <point x="378" y="731"/>
      <point x="418" y="677" type="curve" smooth="yes"/>
      <point x="449" y="636"/>
      <point x="471" y="610"/>
      <point x="549" y="521" type="curve" smooth="yes"/>
      <point x="621" y="438"/>
      <point x="646" y="409"/>
      <point x="676" y="368" type="curve" smooth="yes"/>
      <point x="740" y="282"/>
      <point x="779" y="203"/>
      <point x="793" y="128" type="curve" smooth="yes"/>
      <point x="808" y="49"/>
      <point x="798" y="-37"/>
      <point x="765" y="-122" type="curve" smooth="yes"/>
      <point x="741" y="-183"/>
      <point x="707" y="-235"/>
      <point x="661" y="-281" type="curve" smooth="yes"/>
      <point x="614" y="-328"/>
      <point x="564" y="-362"/>
      <point x="500" y="-391" type="curve" smooth="yes"/>
      <point x="435" y="-420"/>
      <point x="359" y="-438"/>
      <point x="278" y="-443" type="curve" smooth="yes"/>
      <point x="255" y="-444"/>
      <point x="202" y="-444"/>
      <point x="179" y="-442" type="curve" smooth="yes"/>
      <point x="59" y="-434"/>
      <point x="-46" y="-399"/>
      <point x="-135" y="-338" type="curve" smooth="yes"/>
      <point x="-217" y="-283"/>
      <point x="-284" y="-206"/>
      <point x="-330" y="-115" type="curve" smooth="yes"/>
      <point x="-370" y="-38"/>
      <point x="-392" y="39"/>
      <point x="-399" y="117" type="curve" smooth="yes"/>
      <point x="-401" y="136"/>
      <point x="-401" y="184"/>
      <point x="-399" y="203" type="curve" smooth="yes"/>
      <point x="-391" y="299"/>
      <point x="-360" y="386"/>
      <point x="-307" y="465" type="curve" smooth="yes"/>
      <point x="-287" y="496"/>
      <point x="-268" y="519"/>
      <point x="-241" y="546" type="curve" smooth="yes"/>
      <point x="-187" y="600"/>
      <point x="-128" y="640"/>
      <point x="-56" y="670" type="curve" smooth="yes"/>
      <point x="-25" y="683"/>
      <point x="24" y="698"/>
      <point x="43" y="700" type="curve" smooth="yes"/>
      <point x="74" y="704"/>
      <point x="111" y="696"/>
      <point x="111" y="686" type="curve" smooth="yes"/>
      <point x="111" y="680"/>
      <point x="103" y="676"/>
      <point x="83" y="671" type="curve" smooth="yes"/>
      <point x="70" y="668"/>
      <point x="41" y="658"/>
      <point x="24" y="651" type="curve" smooth="yes"/>
      <point x="-23" y="631"/>
      <point x="-69" y="603"/>
      <point x="-111" y="568" type="curve" smooth="yes"/>
      <point x="-126" y="555"/>
      <point x="-156" y="526"/>
      <point x="-169" y="510" type="curve" smooth="yes"/>
      <point x="-245" y="420"/>
      <point x="-288" y="318"/>
      <point x="-298" y="202" type="curve" smooth="yes"/>
      <point x="-300" y="183"/>
      <point x="-300" y="137"/>
      <point x="-298" y="119" type="curve" smooth="yes"/>
      <point x="-291" y="42"/>
      <point x="-270" y="-30"/>
      <point x="-233" y="-104" type="curve" smooth="yes"/>
      <point x="-191" y="-188"/>
      <point x="-134" y="-258"/>
      <point x="-63" y="-311" type="curve" smooth="yes"/>
      <point x="10" y="-365"/>
      <point x="92" y="-399"/>
      <point x="183" y="-411" type="curve" smooth="yes"/>
      <point x="204" y="-414"/>
      <point x="261" y="-413"/>
      <point x="284" y="-410" type="curve" smooth="yes"/>
      <point x="370" y="-398"/>
      <point x="446" y="-367"/>
      <point x="516" y="-315" type="curve" smooth="yes"/>
      <point x="534" y="-301"/>
      <point x="545" y="-292"/>
      <point x="562" y="-274" type="curve" smooth="yes"/>
      <point x="635" y="-201"/>
      <point x="680" y="-108"/>
      <point x="695" y="-3" type="curve" smooth="yes"/>
      <point x="712" y="118"/>
      <point x="676" y="228"/>
      <point x="577" y="361" type="curve" smooth="yes"/>
      <point x="547" y="402"/>
      <point x="522" y="431"/>
      <point x="450" y="514" type="curve" smooth="yes"/>
      <point x="372" y="603"/>
      <point x="350" y="629"/>
      <point x="319" y="670" type="curve" smooth="yes"/>
      <point x="279" y="724"/>
      <point x="255" y="762"/>
      <point x="181" y="892" type="curve" smooth="yes"/>
      <point x="102" y="1031"/>
      <point x="59" y="1091"/>
      <point x="-5" y="1155" type="curve" smooth="yes"/>
      <point x="-36" y="1186"/>
      <point x="-59" y="1207"/>
      <point x="-125" y="1261" type="curve" smooth="yes"/>
      <point x="-145" y="1277"/>
      <point x="-168" y="1297"/>
      <point x="-178" y="1305" type="curve" smooth="yes"/>
      <point x="-275" y="1389"/>
      <point x="-324" y="1447"/>
      <point x="-353" y="1516" type="curve" smooth="yes"/>
      <point x="-367" y="1549"/>
      <point x="-375" y="1580"/>
      <point x="-380" y="1624" type="curve" smooth="yes"/>
      <point x="-382" y="1647"/>
      <point x="-382" y="1713"/>
      <point x="-380" y="1735" type="curve" smooth="yes"/>
      <point x="-374" y="1780"/>
      <point x="-364" y="1820"/>
      <point x="-348" y="1859" type="curve" smooth="yes"/>
      <point x="-322" y="1922"/>
      <point x="-283" y="1978"/>
      <point x="-231" y="2024" type="curve"/>
      <point x="-193" y="2059"/>
      <point x="-153" y="2085"/>
      <point x="-106" y="2108" type="curve" smooth="yes"/>
      <point x="-25" y="2148"/>
      <point x="61" y="2169"/>
    </contour>
  </outline>
</glyph>
<glyph name="T" format="1">
  <advance width="530"/>
  <unicode hex="0054"/>
  <outline>
    <contour>
      <point x="1" y="1615" type="curve" smooth="yes"/>
      <point x="2" y="1616"/>
      <point x="76" y="1616"/>
      <point x="165" y="1616" type="curve" smooth="yes"/>
      <point x="338" y="1616"/>
      <point x="336" y="1616"/>
      <point x="352" y="1611" type="curve" smooth="yes"/>
      <point x="359" y="1608"/>
      <point x="365" y="1604"/>
      <point x="365" y="1601" type="curve" smooth="yes"/>
      <point x="365" y="1597"/>
      <point x="359" y="1593"/>
      <point x="352" y="1590" type="curve" smooth="yes"/>
      <point x="338" y="1586"/>
      <point x="329" y="1585"/>
      <point x="271" y="1585" type="curve" smooth="yes"/>
      <point x="216" y="1585" type="line"/>
      <point x="216" y="792" type="line" smooth="yes"/>
      <point x="216" y="73"/>
      <point x="216" y="-2"/>
      <point x="214" y="-4" type="curve" smooth="yes"/>
      <point x="212" y="-7"/>
      <point x="207" y="-9"/>
      <point x="197" y="-12" type="curve" smooth="yes"/>
      <point x="187" y="-15"/>
      <point x="158" y="-16"/>
      <point x="145" y="-14" type="curve" smooth="yes"/>
      <point x="133" y="-12"/>
      <point x="121" y="-8"/>
      <point x="118" y="-5" type="curve" smooth="yes"/>
      <point x="115" y="-2" type="line"/>
      <point x="115" y="791" type="line"/>
      <point x="115" y="1585" type="line"/>
      <point x="55" y="1585" type="line"/>
      <point x="-8" y="1586"/>
      <point x="-9" y="1586"/>
      <point x="-23" y="1591" type="curve" smooth="yes"/>
      <point x="-29" y="1593"/>
      <point x="-35" y="1597"/>
      <point x="-35" y="1601" type="curve" smooth="yes"/>
      <point x="-35" y="1607"/>
      <point x="-21" y="1613"/>
    </contour>
  </outline>
</glyph>
<glyph name="U" format="1">
  <advance width="680"/>
  <unicode hex="0055"/>
  <outline>
    <contour>
      <point x="82" y="1615" type="curve" smooth="yes"/>
      <point x="84" y="1616"/>
      <point x="88" y="1616"/>
      <point x="89" y="1616" type="curve" smooth="yes"/>
      <point x="95" y="1616"/>
      <point x="115" y="1614"/>
      <point x="122" y="1612" type="curve" smooth="yes"/>
      <point x="132" y="1610"/>
      <point x="137" y="1607"/>
      <point x="139" y="1604" type="curve" smooth="yes"/>
      <point x="141" y="1602"/>
      <point x="141" y="1547"/>
      <point x="141" y="1029" type="curve" smooth="yes"/>
      <point x="141" y="715"/>
      <point x="141" y="456"/>
      <point x="140" y="456" type="curve"/>
      <point x="140" y="455"/>
      <point x="135" y="450"/>
      <point x="130" y="446" type="curve" smooth="yes"/>
      <point x="84" y="410"/>
      <point x="53" y="359"/>
      <point x="42" y="304" type="curve" smooth="yes"/>
      <point x="26" y="224"/>
      <point x="51" y="140"/>
      <point x="108" y="80" type="curve" smooth="yes"/>
      <point x="144" y="42"/>
      <point x="197" y="16"/>
      <point x="240" y="16" type="curve" smooth="yes"/>
      <point x="283" y="16"/>
      <point x="336" y="42"/>
      <point x="372" y="80" type="curve" smooth="yes"/>
      <point x="437" y="148"/>
      <point x="459" y="245"/>
      <point x="430" y="333" type="curve" smooth="yes"/>
      <point x="417" y="375"/>
      <point x="387" y="417"/>
      <point x="350" y="446" type="curve" smooth="yes"/>
      <point x="345" y="450"/>
      <point x="340" y="455"/>
      <point x="340" y="456" type="curve"/>
      <point x="339" y="456"/>
      <point x="339" y="715"/>
      <point x="339" y="1029" type="curve" smooth="yes"/>
      <point x="339" y="1602" type="line"/>
      <point x="341" y="1604" type="line" smooth="yes"/>
      <point x="345" y="1609"/>
      <point x="360" y="1613"/>
      <point x="378" y="1615" type="curve" smooth="yes"/>
      <point x="403" y="1617"/>
      <point x="433" y="1612"/>
      <point x="438" y="1604" type="curve" smooth="yes"/>
      <point x="440" y="1602"/>
      <point x="440" y="1547"/>
      <point x="440" y="1031" type="curve" smooth="yes"/>
      <point x="440" y="461" type="line"/>
      <point x="449" y="453" type="line"/>
      <point x="472" y="434"/>
      <point x="488" y="417"/>
      <point x="502" y="395" type="curve" smooth="yes"/>
      <point x="532" y="351"/>
      <point x="546" y="301"/>
      <point x="544" y="247" type="curve" smooth="yes"/>
      <point x="542" y="213"/>
      <point x="536" y="183"/>
      <point x="522" y="151" type="curve" smooth="yes"/>
      <point x="497" y="91"/>
      <point x="449" y="42"/>
      <point x="390" y="15" type="curve" smooth="yes"/>
      <point x="283" y="-34"/>
      <point x="130" y="-22"/>
      <point x="45" y="41" type="curve" smooth="yes"/>
      <point x="-2" y="76"/>
      <point x="-33" y="119"/>
      <point x="-51" y="175" type="curve" smooth="yes"/>
      <point x="-70" y="233"/>
      <point x="-68" y="296"/>
      <point x="-45" y="351" type="curve" smooth="yes"/>
      <point x="-29" y="391"/>
      <point x="-6" y="422"/>
      <point x="31" y="453" type="curve"/>
      <point x="40" y="461" type="line"/>
      <point x="40" y="1032" type="line"/>
      <point x="40" y="1602" type="line"/>
      <point x="43" y="1605" type="line" smooth="yes"/>
      <point x="47" y="1610"/>
      <point x="64" y="1614"/>
    </contour>
  </outline>
</glyph>
<glyph name="V" format="1">
  <advance width="530"/>
  <unicode hex="0056"/>
  <outline>
    <contour>
      <point x="2" y="1615" type="curve" smooth="yes"/>
      <point x="16" y="1616"/>
      <point x="15" y="1616"/>
      <point x="28" y="1615" type="curve" smooth="yes"/>
      <point x="47" y="1613"/>
      <point x="61" y="1609"/>
      <point x="64" y="1604" type="curve" smooth="yes"/>
      <point x="66" y="1602"/>
      <point x="78" y="1476"/>
      <point x="115" y="1074" type="curve" smooth="yes"/>
      <point x="142" y="784"/>
      <point x="165" y="547"/>
      <point x="165" y="547" type="curve"/>
      <point x="165" y="547"/>
      <point x="188" y="784"/>
      <point x="215" y="1074" type="curve" smooth="yes"/>
      <point x="254" y="1489"/>
      <point x="264" y="1602"/>
      <point x="266" y="1604" type="curve" smooth="yes"/>
      <point x="271" y="1611"/>
      <point x="302" y="1617"/>
      <point x="327" y="1615" type="curve" smooth="yes"/>
      <point x="346" y="1613"/>
      <point x="361" y="1609"/>
      <point x="364" y="1603" type="curve" smooth="yes"/>
      <point x="365" y="1601"/>
      <point x="356" y="1502"/>
      <point x="290" y="799" type="curve" smooth="yes"/>
      <point x="221" y="63"/>
      <point x="215" y="-3"/>
      <point x="213" y="-5" type="curve" smooth="yes"/>
      <point x="210" y="-7"/>
      <point x="202" y="-11"/>
      <point x="195" y="-13" type="curve" smooth="yes"/>
      <point x="189" y="-14"/>
      <point x="183" y="-14"/>
      <point x="165" y="-14" type="curve" smooth="yes"/>
      <point x="144" y="-14"/>
      <point x="141" y="-14"/>
      <point x="134" y="-12" type="curve" smooth="yes"/>
      <point x="124" y="-10"/>
      <point x="118" y="-6"/>
      <point x="116" y="-3" type="curve" smooth="yes"/>
      <point x="115" y="-1"/>
      <point x="102" y="131"/>
      <point x="40" y="800" type="curve"/>
      <point x="-32" y="1564"/>
      <point x="-35" y="1601"/>
      <point x="-34" y="1604" type="curve"/>
      <point x="-30" y="1608"/>
      <point x="-15" y="1613"/>
    </contour>
  </outline>
</glyph>
<glyph name="W" format="1">
  <advance width="790"/>
  <unicode hex="0057"/>
  <outline>
    <contour>
      <point x="32" y="1615" type="curve" smooth="yes"/>
      <point x="46" y="1616"/>
      <point x="45" y="1616"/>
      <point x="58" y="1615" type="curve" smooth="yes"/>
      <point x="77" y="1613"/>
      <point x="91" y="1609"/>
      <point x="94" y="1604" type="curve" smooth="yes"/>
      <point x="96" y="1602"/>
      <point x="100" y="1521"/>
      <point x="118" y="1129" type="curve" smooth="yes"/>
      <point x="130" y="869"/>
      <point x="140" y="655"/>
      <point x="140" y="653" type="curve" smooth="yes"/>
      <point x="140" y="651"/>
      <point x="141" y="658"/>
      <point x="143" y="669" type="curve" smooth="yes"/>
      <point x="145" y="691"/>
      <point x="145" y="691"/>
      <point x="156" y="695" type="curve" smooth="yes"/>
      <point x="167" y="699"/>
      <point x="175" y="700"/>
      <point x="195" y="700" type="curve" smooth="yes"/>
      <point x="215" y="700"/>
      <point x="225" y="699"/>
      <point x="236" y="695" type="curve" smooth="yes"/>
      <point x="245" y="691"/>
      <point x="245" y="691"/>
      <point x="248" y="669" type="curve" smooth="yes"/>
      <point x="249" y="658"/>
      <point x="250" y="651"/>
      <point x="250" y="653" type="curve" smooth="yes"/>
      <point x="250" y="655"/>
      <point x="260" y="869"/>
      <point x="272" y="1129" type="curve" smooth="yes"/>
      <point x="291" y="1531"/>
      <point x="294" y="1602"/>
      <point x="296" y="1604" type="curve" smooth="yes"/>
      <point x="301" y="1611"/>
      <point x="332" y="1617"/>
      <point x="357" y="1615" type="curve" smooth="yes"/>
      <point x="376" y="1613"/>
      <point x="391" y="1609"/>
      <point x="394" y="1603" type="curve" smooth="yes"/>
      <point x="395" y="1601"/>
      <point x="390" y="1486"/>
      <point x="358" y="799" type="curve" smooth="yes"/>
      <point x="322" y="28"/>
      <point x="320" y="-3"/>
      <point x="318" y="-5" type="curve" smooth="yes"/>
      <point x="310" y="-11"/>
      <point x="298" y="-14"/>
      <point x="275" y="-15" type="curve"/>
      <point x="247" y="-15"/>
      <point x="230" y="-12"/>
      <point x="222" y="-5" type="curve"/>
      <point x="219" y="-1" type="line"/>
      <point x="208" y="108" type="line" smooth="yes"/>
      <point x="201" y="169"/>
      <point x="195" y="218"/>
      <point x="195" y="218" type="curve"/>
      <point x="195" y="218"/>
      <point x="189" y="168"/>
      <point x="182" y="107" type="curve" smooth="yes"/>
      <point x="172" y="9"/>
      <point x="170" y="-3"/>
      <point x="168" y="-5" type="curve" smooth="yes"/>
      <point x="165" y="-7"/>
      <point x="157" y="-11"/>
      <point x="150" y="-13" type="curve" smooth="yes"/>
      <point x="144" y="-14"/>
      <point x="138" y="-14"/>
      <point x="120" y="-14" type="curve" smooth="yes"/>
      <point x="99" y="-14"/>
      <point x="96" y="-14"/>
      <point x="89" y="-12" type="curve" smooth="yes"/>
      <point x="79" y="-10"/>
      <point x="73" y="-6"/>
      <point x="71" y="-3" type="curve" smooth="yes"/>
      <point x="69" y="-1"/>
      <point x="65" y="87"/>
      <point x="32" y="800" type="curve" smooth="yes"/>
      <point x="-3" y="1549"/>
      <point x="-5" y="1601"/>
      <point x="-3" y="1604" type="curve" smooth="yes"/>
      <point x="0" y="1608"/>
      <point x="15" y="1613"/>
    </contour>
  </outline>
</glyph>
<glyph name="X" format="1">
  <advance width="590"/>
  <unicode hex="0058"/>
  <outline>
    <contour>
      <point x="32" y="1615" type="curve" smooth="yes"/>
      <point x="46" y="1616"/>
      <point x="45" y="1616"/>
      <point x="58" y="1615" type="curve" smooth="yes"/>
      <point x="76" y="1613"/>
      <point x="91" y="1609"/>
      <point x="94" y="1604" type="curve" smooth="yes"/>
      <point x="95" y="1602"/>
      <point x="117" y="1488"/>
      <point x="145" y="1338" type="curve" smooth="yes"/>
      <point x="172" y="1193"/>
      <point x="195" y="1074"/>
      <point x="195" y="1074" type="curve"/>
      <point x="195" y="1074"/>
      <point x="218" y="1193"/>
      <point x="245" y="1338" type="curve" smooth="yes"/>
      <point x="275" y="1497"/>
      <point x="295" y="1602"/>
      <point x="296" y="1604" type="curve" smooth="yes"/>
      <point x="301" y="1611"/>
      <point x="332" y="1617"/>
      <point x="357" y="1615" type="curve" smooth="yes"/>
      <point x="376" y="1613"/>
      <point x="391" y="1609"/>
      <point x="394" y="1603" type="curve" smooth="yes"/>
      <point x="395" y="1601"/>
      <point x="389" y="1565"/>
      <point x="320" y="1200" type="curve"/>
      <point x="246" y="800" type="line"/>
      <point x="320" y="400" type="line"/>
      <point x="389" y="35"/>
      <point x="395" y="-1"/>
      <point x="394" y="-3" type="curve" smooth="yes"/>
      <point x="392" y="-7"/>
      <point x="386" y="-10"/>
      <point x="376" y="-12" type="curve" smooth="yes"/>
      <point x="367" y="-14"/>
      <point x="364" y="-14"/>
      <point x="344" y="-14" type="curve" smooth="yes"/>
      <point x="324" y="-14"/>
      <point x="321" y="-14"/>
      <point x="314" y="-12" type="curve" smooth="yes"/>
      <point x="303" y="-9"/>
      <point x="297" y="-7"/>
      <point x="296" y="-4" type="curve" smooth="yes"/>
      <point x="295" y="-2"/>
      <point x="275" y="103"/>
      <point x="245" y="262" type="curve" smooth="yes"/>
      <point x="218" y="407"/>
      <point x="195" y="526"/>
      <point x="195" y="526" type="curve"/>
      <point x="195" y="526"/>
      <point x="172" y="407"/>
      <point x="145" y="262" type="curve" smooth="yes"/>
      <point x="117" y="112"/>
      <point x="95" y="-2"/>
      <point x="94" y="-4" type="curve" smooth="yes"/>
      <point x="92" y="-7"/>
      <point x="87" y="-9"/>
      <point x="77" y="-12" type="curve" smooth="yes"/>
      <point x="69" y="-14"/>
      <point x="67" y="-14"/>
      <point x="46" y="-14" type="curve" smooth="yes"/>
      <point x="25" y="-14"/>
      <point x="22" y="-14"/>
      <point x="15" y="-12" type="curve" smooth="yes"/>
      <point x="4" y="-9"/>
      <point x="-2" y="-6"/>
      <point x="-4" y="-3" type="curve" smooth="yes"/>
      <point x="-5" y="-1"/>
      <point x="2" y="37"/>
      <point x="70" y="400" type="curve" smooth="yes"/>
      <point x="144" y="800" type="line"/>
      <point x="70" y="1200" type="line" smooth="yes"/>
      <point x="2" y="1563"/>
      <point x="-5" y="1601"/>
      <point x="-4" y="1603" type="curve" smooth="yes"/>
      <point x="-1" y="1608"/>
      <point x="15" y="1613"/>
    </contour>
  </outline>
</glyph>
<glyph name="Y" format="1">
  <advance width="530"/>
  <unicode hex="0059"/>
  <outline>
    <contour>
      <point x="2" y="1615" type="curve" smooth="yes"/>
      <point x="16" y="1616"/>
      <point x="15" y="1616"/>
      <point x="28" y="1615" type="curve" smooth="yes"/>
      <point x="46" y="1613"/>
      <point x="61" y="1609"/>
      <point x="64" y="1604" type="curve" smooth="yes"/>
      <point x="65" y="1602"/>
      <point x="84" y="1489"/>
      <point x="115" y="1302" type="curve" smooth="yes"/>
      <point x="142" y="1137"/>
      <point x="164" y="1001"/>
      <point x="165" y="1000" type="curve" smooth="yes"/>
      <point x="165" y="999"/>
      <point x="186" y="1127"/>
      <point x="215" y="1299" type="curve" smooth="yes"/>
      <point x="242" y="1465"/>
      <point x="264" y="1602"/>
      <point x="265" y="1603" type="curve" smooth="yes"/>
      <point x="269" y="1611"/>
      <point x="301" y="1617"/>
      <point x="327" y="1615" type="curve" smooth="yes"/>
      <point x="346" y="1613"/>
      <point x="361" y="1609"/>
      <point x="364" y="1603" type="curve" smooth="yes"/>
      <point x="365" y="1601"/>
      <point x="358" y="1557"/>
      <point x="291" y="1144" type="curve" smooth="yes"/>
      <point x="216" y="688" type="line"/>
      <point x="216" y="343" type="line" smooth="yes"/>
      <point x="216" y="32"/>
      <point x="216" y="-2"/>
      <point x="214" y="-4" type="curve" smooth="yes"/>
      <point x="212" y="-7"/>
      <point x="207" y="-9"/>
      <point x="197" y="-12" type="curve" smooth="yes"/>
      <point x="187" y="-15"/>
      <point x="158" y="-16"/>
      <point x="145" y="-14" type="curve" smooth="yes"/>
      <point x="133" y="-12"/>
      <point x="121" y="-8"/>
      <point x="118" y="-5" type="curve" smooth="yes"/>
      <point x="115" y="-2" type="line"/>
      <point x="115" y="341" type="line"/>
      <point x="115" y="685" type="line"/>
      <point x="40" y="1142" type="line" smooth="yes"/>
      <point x="-28" y="1554"/>
      <point x="-35" y="1601"/>
      <point x="-34" y="1603" type="curve" smooth="yes"/>
      <point x="-31" y="1608"/>
      <point x="-15" y="1613"/>
    </contour>
  </outline>
</glyph>
<glyph name="Z" format="1">
  <advance width="590"/>
  <unicode hex="005A"/>
  <outline>
    <contour>
      <point x="31" y="1615" type="curve" smooth="yes"/>
      <point x="32" y="1616"/>
      <point x="106" y="1616"/>
      <point x="195" y="1616" type="curve" smooth="yes"/>
      <point x="333" y="1616"/>
      <point x="357" y="1616"/>
      <point x="366" y="1614" type="curve"/>
      <point x="378" y="1613"/>
      <point x="387" y="1610"/>
      <point x="392" y="1606" type="curve" smooth="yes"/>
      <point x="395" y="1603"/>
      <point x="395" y="1602"/>
      <point x="395" y="1599" type="curve" smooth="yes"/>
      <point x="394" y="1594"/>
      <point x="100" y="22"/>
      <point x="99" y="18" type="curve"/>
      <point x="99" y="16" type="line"/>
      <point x="227" y="16" type="line" smooth="yes"/>
      <point x="365" y="16"/>
      <point x="367" y="16"/>
      <point x="382" y="11" type="curve" smooth="yes"/>
      <point x="389" y="8"/>
      <point x="395" y="4"/>
      <point x="395" y="1" type="curve" smooth="yes"/>
      <point x="395" y="-5"/>
      <point x="383" y="-11"/>
      <point x="365" y="-13" type="curve" smooth="yes"/>
      <point x="356" y="-15"/>
      <point x="336" y="-15"/>
      <point x="190" y="-15" type="curve" smooth="yes"/>
      <point x="36" y="-14"/>
      <point x="25" y="-14"/>
      <point x="18" y="-13" type="curve" smooth="yes"/>
      <point x="7" y="-10"/>
      <point x="1" y="-7"/>
      <point x="-2" y="-4" type="curve" smooth="yes"/>
      <point x="-5" y="-1"/>
      <point x="-5" y="-1"/>
      <point x="-5" y="3" type="curve" smooth="yes"/>
      <point x="-4" y="8"/>
      <point x="290" y="1580"/>
      <point x="291" y="1583" type="curve"/>
      <point x="291" y="1585" type="line"/>
      <point x="158" y="1585" type="line"/>
      <point x="15" y="1586"/>
      <point x="22" y="1585"/>
      <point x="7" y="1591" type="curve" smooth="yes"/>
      <point x="1" y="1593"/>
      <point x="-5" y="1597"/>
      <point x="-5" y="1601" type="curve" smooth="yes"/>
      <point x="-5" y="1607"/>
      <point x="9" y="1613"/>
    </contour>
  </outline>
</glyph>
